<svg xmlns="http://www.w3.org/2000/svg" width="36" height="36" viewBox="0 0 9.5249998 9.5250003"><path d="m 6.878 290.37 c -0.036 0.02 -0.069 0.03 -0.097 0.03 -0.045 0 -0.081 -0.024 -0.103 -0.07 -0.053 -0.108 -0.018 -0.309 0.046 -0.391 0.066 -0.084 0.152 -0.143 0.256 -0.176 l 0.015 -0.005 0.005 0.014 c 0.062 0.186 0.055 0.497 -0.121 0.596 z m -1.035 -1.388 c -0.022 0.041 -0.052 0.078 -0.091 0.114 l -0.01 0.009 -0.011 -0.009 c -0.101 -0.087 -0.154 -0.193 -0.151 -0.306 0.002 -0.094 0.071 -0.198 0.167 -0.198 0.034 0 0.067 0.013 0.1 0.039 0.126 0.101 0.01 0.326 -0.004 0.351 z m -1.852 2.157 c -0.353 0.006 -0.701 -0.196 -0.69 -0.586 0.011 -0.394 0.3 -0.611 0.67 -0.617 0.663 0.059 0.759 1.192 0.019 1.203 z m 0.647 -0.158 c 0.021 0.064 0.05 0.123 0.086 0.177 -0.097 0.002 -0.188 0.018 -0.275 0.043 0.077 -0.06 0.141 -0.135 0.189 -0.22 z m 0.854 -0.874 c 0.663 0.059 0.759 1.192 0.019 1.203 -0.353 0.006 -0.701 -0.196 -0.69 -0.586 0.012 -0.394 0.3 -0.61 0.67 -0.617 z m 0.709 2.474 c -0.353 0.005 -0.701 -0.196 -0.69 -0.586 0.012 -0.394 0.3 -0.611 0.67 -0.617 0.663 0.059 0.759 1.192 0.019 1.203 z m -0.718 1.262 c -0.353 0.006 -0.701 -0.196 -0.69 -0.586 0.011 -0.394 0.3 -0.61 0.67 -0.617 0.663 0.059 0.759 1.192 0.019 1.203 z m -0.718 1.261 c -0.353 0.006 -0.701 -0.196 -0.69 -0.586 0.011 -0.394 0.3 -0.61 0.67 -0.617 0.663 0.059 0.759 1.192 0.019 1.203 z m -0.862 1.217 c -0.353 0.006 -0.701 -0.195 -0.69 -0.586 0.011 -0.394 0.3 -0.611 0.671 -0.617 0.663 0.059 0.759 1.192 0.019 1.203 z m -1.439 -1.846 c 0.011 -0.394 0.3 -0.61 0.67 -0.617 0.663 0.059 0.759 1.192 0.019 1.203 -0.353 0.006 -0.701 -0.196 -0.69 -0.586 z m -0.718 -1.391 c 0.011 -0.394 0.3 -0.611 0.67 -0.617 0.663 0.059 0.759 1.192 0.019 1.203 -0.353 0.006 -0.701 -0.195 -0.69 -0.586 z m -0.734 -1.407 c 0.045 -0.36 0.321 -0.534 0.661 -0.549 0.688 0.048 0.744 1.238 -0.024 1.2 -0.373 -0.018 -0.688 -0.247 -0.637 -0.651 z m 1.504 -1.76 c 0.663 0.059 0.759 1.192 0.019 1.203 -0.353 0.005 -0.701 -0.196 -0.69 -0.586 0.011 -0.394 0.3 -0.611 0.67 -0.617 z m 1.434 1.662 c -0.026 -0.084 -0.06 -0.162 -0.105 -0.231 0.048 0.007 0.097 0.01 0.147 0.01 0.06 0 0.117 -0.008 0.173 -0.02 -0.087 0.064 -0.159 0.145 -0.214 0.24 z m 0.777 -0.202 c 0.663 0.059 0.759 1.192 0.019 1.203 -0.353 0.005 -0.701 -0.196 -0.69 -0.586 0.012 -0.394 0.3 -0.611 0.67 -0.617 z m 0.66 0.234 c -0.016 -0.033 -0.032 -0.066 -0.051 -0.096 0.033 0.005 0.067 0.008 0.101 0.011 -0.018 0.027 -0.034 0.056 -0.049 0.085 z m 0.014 0.797 c 0.003 0.006 0.007 0.011 0.011 0.016 -0.007 0 -0.014 0.002 -0.021 0.002 0.003 -0.006 0.006 -0.012 0.01 -0.018 z m -0.793 1.098 c 0.02 0.065 0.049 0.125 0.085 0.18 -0.068 0.005 -0.133 0.015 -0.196 0.031 0.048 -0.063 0.086 -0.134 0.112 -0.211 z m -1.546 0.04 c 0.015 0.033 0.034 0.064 0.053 0.093 -0.046 0.001 -0.091 0.006 -0.135 0.013 0.03 -0.033 0.057 -0.068 0.082 -0.106 z m 0.159 -0.908 c -0.042 0.043 -0.078 0.092 -0.109 0.145 -0.022 -0.059 -0.047 -0.115 -0.079 -0.167 0.061 0.012 0.124 0.02 0.188 0.022 z m -0.824 -1.069 c -0.019 -0.089 -0.05 -0.175 -0.093 -0.254 0.067 0.014 0.137 0.022 0.207 0.024 -0.05 0.067 -0.086 0.146 -0.113 0.23 z m 0.759 -0.565 c 0.01 -0.015 0.02 -0.03 0.028 -0.046 0.009 0.014 0.018 0.028 0.027 0.041 -0.019 0.001 -0.037 0.004 -0.056 0.006 z m 0.771 1.372 c -0.015 -0.002 -0.028 -0.007 -0.043 -0.008 -0.019 0 -0.037 0.004 -0.056 0.006 0.022 -0.026 0.042 -0.053 0.06 -0.082 0.011 0.029 0.025 0.057 0.039 0.084 z m -1.358 -0.543 c 0.012 -0.394 0.3 -0.611 0.671 -0.617 0.663 0.059 0.759 1.192 0.019 1.203 -0.353 0.005 -0.701 -0.196 -0.69 -0.586 z m 1.334 1.959 c -0.353 0.005 -0.701 -0.196 -0.69 -0.586 0.011 -0.394 0.3 -0.61 0.671 -0.617 0.663 0.059 0.759 1.192 0.019 1.203 z m 0.71 -0.775 c -0.021 -0.087 -0.052 -0.167 -0.092 -0.24 0.062 0.012 0.126 0.02 0.191 0.022 -0.043 0.065 -0.076 0.138 -0.099 0.218 z m -2.333 -0.758 c 0.042 -0.061 0.074 -0.128 0.097 -0.2 0.019 0.071 0.048 0.137 0.085 0.195 -0.016 -0.002 -0.03 -0.007 -0.046 -0.008 -0.047 0.001 -0.091 0.007 -0.136 0.013 z m 1.595 2.086 c -0.024 -0.129 -0.067 -0.245 -0.129 -0.345 0.051 0.008 0.104 0.011 0.156 0.012 0.046 0 0.091 -0.005 0.135 -0.012 -0.078 0.096 -0.135 0.211 -0.163 0.346 z m 0.008 0.553 c -0.029 0 -0.056 0.006 -0.085 0.008 0.034 -0.059 0.06 -0.123 0.076 -0.191 0.016 0.071 0.042 0.136 0.077 0.195 -0.023 -0.004 -0.044 -0.01 -0.068 -0.012 z m 4.718 -5.854 c -0.021 -0.028 -0.047 -0.042 -0.076 -0.042 -0.042 0 -0.085 0.031 -0.107 0.077 -0.024 0.048 -0.019 0.099 0.013 0.141 0.08 0.104 0.094 0.242 0.036 0.36 -0.055 0.112 -0.158 0.178 -0.277 0.178 -0.011 0 -0.023 0 -0.035 -0.002 -0.12 -0.013 -0.241 -0.059 -0.358 -0.103 l -0.082 -0.031 c -0.213 -0.077 -0.39 -0.136 -0.573 -0.136 l -0.033 -0.006 c -0.074 -0.088 -0.167 -0.151 -0.276 -0.187 -0.109 -0.037 -0.22 -0.042 -0.303 -0.042 -0.047 0 -0.094 0.002 -0.141 0.004 -0.047 0.002 -0.094 0.003 -0.141 0.003 -0.104 0 -0.183 -0.008 -0.256 -0.027 l -0.024 -0.007 0.016 -0.019 c 0.064 -0.076 0.112 -0.169 0.14 -0.276 0.042 -0.156 0.022 -0.293 -0.056 -0.395 -0.075 -0.098 -0.202 -0.157 -0.338 -0.157 -0.124 0 -0.235 0.048 -0.307 0.133 -0.077 0.091 -0.104 0.22 -0.079 0.372 0.019 0.115 0.069 0.221 0.147 0.314 l 0.017 0.02 -0.025 0.006 c -0.068 0.015 -0.146 0.024 -0.243 0.03 -0.018 0.001 -0.037 0.002 -0.054 0.002 -0.268 0 -0.468 -0.113 -0.686 -0.283 0 0 -0.001 0 -0.002 -0.001 0.003 -0.006 0.005 -0.011 0.008 -0.016 0.141 -0.293 0.166 -0.596 0.153 -0.917 -0.005 -0.141 -0.226 -0.142 -0.22 0 0.016 0.394 -0.059 0.684 -0.243 1.025 -0.116 0.214 -0.185 0.422 -0.218 0.656 -0.003 0 -0.005 -0.001 -0.008 -0.001 -0.35 0.006 -0.645 0.167 -0.791 0.446 -0.118 -0.259 -0.339 -0.436 -0.665 -0.465 -0.492 0.008 -0.879 0.319 -0.89 0.837 -0.003 0.145 0.03 0.272 0.089 0.379 -0.014 -0.002 -0.027 -0.004 -0.042 -0.005 -0.465 0.02 -0.825 0.268 -0.883 0.754 -0.064 0.539 0.361 0.863 0.859 0.887 0.026 0.001 0.05 0 0.074 0 -0.118 0.138 -0.193 0.317 -0.198 0.535 -0.012 0.52 0.433 0.804 0.91 0.806 0.018 0 0.036 -0.002 0.054 -0.003 -0.147 0.143 -0.24 0.341 -0.245 0.588 -0.011 0.511 0.418 0.794 0.886 0.805 -0.082 0.125 -0.133 0.277 -0.137 0.455 -0.012 0.52 0.433 0.804 0.91 0.806 0.441 0.002 0.782 -0.38 0.741 -0.817 -0.015 -0.161 -0.059 -0.305 -0.127 -0.428 0.08 0.018 0.164 0.028 0.249 0.028 0.441 0.002 0.782 -0.38 0.741 -0.817 -0.016 -0.17 -0.063 -0.324 -0.139 -0.451 0.038 0.004 0.077 0.007 0.116 0.007 0.441 0.002 0.782 -0.38 0.741 -0.817 -0.016 -0.171 -0.063 -0.325 -0.14 -0.453 0.039 0.004 0.078 0.007 0.118 0.008 0.442 0.002 0.782 -0.38 0.741 -0.817 -0.043 -0.452 -0.298 -0.785 -0.76 -0.826 -0.009 0 -0.018 0.002 -0.027 0.003 0.076 -0.13 0.113 -0.285 0.098 -0.447 -0.043 -0.452 -0.299 -0.785 -0.76 -0.826 -0.355 0.006 -0.653 0.171 -0.797 0.457 -0.073 -0.276 -0.241 -0.485 -0.502 -0.577 0.03 -0.217 0.107 -0.394 0.198 -0.577 0.291 0.214 0.533 0.304 0.818 0.304 0.062 0 0.128 -0.005 0.195 -0.014 0.121 -0.016 0.23 -0.045 0.337 -0.086 0.035 0.019 0.072 0.036 0.109 0.05 0.118 0.045 0.244 0.067 0.396 0.067 0.05 0 0.101 -0.002 0.151 -0.007 0.049 -0.004 0.1 -0.007 0.151 -0.007 0.106 0 0.187 0.015 0.255 0.046 l 0.029 0.013 -0.028 0.015 c -0.258 0.139 -0.406 0.352 -0.407 0.584 -0.001 0.156 0.052 0.304 0.142 0.394 0.064 0.064 0.143 0.097 0.234 0.097 l 0.011 0 c 0.142 -0.004 0.258 -0.063 0.345 -0.176 0.153 -0.199 0.17 -0.507 0.122 -0.708 l -0.005 -0.022 0.023 0.003 c 0.036 0.005 0.073 0.011 0.109 0.021 0.088 0.023 0.183 0.062 0.283 0.102 0.18 0.073 0.366 0.149 0.54 0.149 0.067 0 0.126 -0.011 0.181 -0.034 0.174 -0.071 0.295 -0.206 0.341 -0.38 0.05 -0.188 0.005 -0.396 -0.12 -0.558" fill="#fff" transform="translate(0 -287.47)"/></svg>