<svg xmlns="http://www.w3.org/2000/svg" viewBox="0 0 10.054 13.229">
  <g fill="#b21751">
    <path d="M1.643 4.632c.18 1.602 1.642 2.984 3.384 2.984 1.882 0 3.424-1.602 3.424-3.344v-.04c-1.962-.26-4.425 1.161-6.808.4"/>
    <path d="M9.432 4.292c0-2.283-1.141-3.684-1.141-3.684H1.763S.622 2.029.622 4.292c0 2.162 1.862 4.185 4.185 4.305-.02 1.261-.14 2.563-.44 3.023-.441.641-1.963.32-1.963 1.002H7.65c0-.681-1.522-.36-1.962-1.002-.3-.46-.42-1.762-.44-3.023 2.322-.12 4.184-2.123 4.184-4.305M5.027 8.076c-1.962 0-3.584-1.562-3.784-3.344-.02-.12-.02-.26-.02-.38 0-1.982.98-3.184.98-3.184H7.85s.961 1.202.982 3.144v.04c0 1.922-1.702 3.724-3.805 3.724" opacity=".8"/>
  </g>
</svg>
