<svg viewBox="0 0 10.054 13.229" xmlns="http://www.w3.org/2000/svg"><path d="M2.098 4.924c.176 1.593 1.606 2.966 3.31 2.966 1.84 0 3.348-1.592 3.348-3.324v-.04c-1.919-.258-4.327 1.155-6.658.398" fill="#b21751"/><path d="M9.214 6.08c.723-1.986.174-3.565.174-3.565L3.71.448s-1.442.875-2.158 2.843c-.685 1.88.294 4.23 2.277 5.069-.417 1.09-.933 2.185-1.34 2.49-.586.418-1.808-.343-2.024.25l4.562 1.66c.216-.592-1.21-.794-1.389-1.492-.115-.495.193-1.665.574-2.769 2.058.631 4.311-.521 5.002-2.42M4.185 7.977c-1.706-.62-2.623-2.493-2.232-4.106.02-.11.064-.232.102-.337.628-1.723 1.86-2.459 1.86-2.459l4.912 1.788s.455 1.35-.141 3.045l-.013.035c-.608 1.672-2.659 2.7-4.488 2.034" opacity=".8" fill="#b21751"/></svg>