<svg aria-label="Telegram" viewBox="0 0 512 512" xmlns:xlink="http://www.w3.org/1999/xlink" xmlns="http://www.w3.org/2000/svg"><defs><clipPath id="b"><use xlink:href="#a" overflow="visible"/></clipPath><path id="a" d="M71.6 5h58.9C184.3 5 197 17.8 197 71.6v58.9c0 53.8-12.8 66.5-66.6 66.5H71.5C17.7 197 5 184.2 5 130.4V71.5C5 17.8 17.8 5 71.6 5Z"/></defs><path class="st0" d="M0 0h202v202H0Z" clip-path="url(#b)" transform="translate(-13.333 -13.333) scale(2.66667)" fill="#37aee2"/><path fill="#c8daea" d="M199 404c-11 0-10-4-13-14l-32-105 245-144"/><path fill="#a9c9dd" d="M199 404c7 0 11-4 16-8l45-43-56-34"/><path fill="#f6fbfe" d="m204 319 135 99c14 9 26 4 30-14l55-258c5-22-9-32-24-25L79 245c-21 8-21 21-4 26l83 26 190-121c9-5 17-3 11 4"/></svg>