<svg xmlns="http://www.w3.org/2000/svg" xmlns:xlink="http://www.w3.org/1999/xlink" viewBox="0 0 984.627 621.347">
  <defs>
    <path id="a" fill="#1f2f3c" d="m572.508 241.18-.05-.665-161.026 12.229-.097.497s-3.455 17.475-6.91 35.103a8212.722 8212.722 0 0 0-4.749 24.39 1503.1 1503.1 0 0 0-1.567 8.225c-.189 1.016-.337 1.83-.44 2.413-.05.292-.089.527-.117.701l-.032.223-.015.19c0 .027-.013.423-.036 1.073-.352 9.841-3.165 82.974-3.165 121.65 0 7.504.105 13.71.357 17.924a1376.62 1376.62 0 0 1 1.942 45.98c.064 2.558.089 3.974.089 3.978l.012.636 183.396 5.321-6.943-280.587-.7.054.051.665-.667.016 6.891 278.479-181.353-5.263-.02.666.666-.012c0-.006-.406-22.77-2.033-50.011-.248-4.163-.355-10.356-.355-17.846 0-20.598.8-51.018 1.6-76.413.4-12.699.8-24.14 1.1-32.472a12662.99 12662.99 0 0 1 .464-12.717c.024-.664.036-1.018.038-1.12h-.383l.381.024.002-.024h-.383l.381.024a5.105 5.105 0 0 1 .043-.294c.444-2.79 3.89-20.498 7.217-37.468 1.664-8.489 3.3-16.801 4.522-22.992.609-3.094 1.116-5.658 1.469-7.449.353-1.79.553-2.805.555-2.808l-.655-.13.05.666 160.52-12.192-.05-.664-.667.016.667-.016"/>
  </defs>
  <path fill="#84d39b" d="M971.801 259.313c-3.648-55.578-37.434-108.581-87.08-148.989-29.044-23.64-63.636-44.152-101.101-59.899-38.883-16.342-81.179-34.67-127.296-36.632-11.381-.485-23.003.115-34.099 2.68-42.481 9.823 43.803 39.726 55.102 44.127C557.133 27.824 432.753-5.43 303.257.74c-24.969 1.19-50.796 4.09-72.338 14.223-21.543 10.133-37.715 29.133-33.61 47.533 3.392 15.21 18.967 31.95 5.616 44.18-3.817 3.497-9.357 5.636-14.805 7.507-27.957 9.594-58.362 14.966-84.714 26.976-40.809 18.598-67.739 51.737-79.36 86.246-11.619 34.511-9.368 70.46-2.636 105.166 12.671 65.316 42.034 129.753 97.827 179.56 79.695 71.144 206.652 105.526 332.422 108.941 152.185 4.13 315.082-38.13 411.462-129.91 14.295-13.613 27.288-28.633 31.955-45.418 4.667-16.787-.48-35.69-17.643-46.28-4.626-2.853-10.549-5.857-10.268-10.447.382-6.21 10.975-8.534 19.064-10.009 53.067-9.681 81.606-55.49 85.291-96.215a151 151 0 0 0 .281-23.48"/>
  <path fill="#d6f0dd" d="M472.012 621.347a755.73 755.73 0 0 1-20.353-.275c-125.77-3.415-252.727-37.797-332.422-108.941-55.793-49.807-85.156-114.244-97.827-179.56-3.333-17.183-5.568-34.671-5.564-52.139.003-17.812 2.335-35.603 8.2-53.027 11.621-34.509 38.551-67.648 79.36-86.246 26.352-12.01 56.757-17.382 84.714-26.976 5.448-1.871 10.988-4.01 14.805-7.507 3.886-3.559 5.322-7.5 5.32-11.675-.002-10.169-8.532-21.721-10.936-32.505a26.606 26.606 0 0 1-.64-5.83c.007-16.48 14.979-32.638 34.25-41.703C252.46 4.829 278.288 1.929 303.257.74a665.27 665.27 0 0 1 31.608-.744c118.159 0 232.083 30.505 342.462 60.604-9.098-3.544-66.81-23.62-66.775-36.437.008-3.1 3.397-5.776 11.673-7.69 8.81-2.037 17.948-2.833 27.036-2.833 2.36 0 4.718.053 7.063.153 46.117 1.962 88.413 20.29 127.296 36.632 37.465 15.747 72.057 36.259 101.101 59.899 49.646 40.408 83.432 93.41 87.08 148.99.219 3.345.33 6.7.327 10.06a149.905 149.905 0 0 1-.608 13.42c-3.685 40.725-32.224 86.533-85.29 96.214-8.09 1.475-18.683 3.799-19.065 10.01a5.724 5.724 0 0 0-.009.32c.005 4.409 5.76 7.34 10.277 10.126 13.191 8.139 19.283 21.188 19.279 34.413a44.415 44.415 0 0 1-1.636 11.867c-4.667 16.785-17.66 31.805-31.955 45.419-92.097 87.7-244.921 130.186-391.109 130.184"/>
  <path fill="#1f2f3c" d="M758.996 122.853h1.333V42.157h-1.333zM646.744 577.21h1.333V77.686h-1.333zm0-513.718h1.333V37.127h-1.333zm112.252 454.132h1.333V131.886h-1.333zm155.601-115.512V262.424h-89.736v255.86h89.736V412.45h-1.332v104.502h-87.07V263.757h87.07v138.355h1.334"/>
  <path fill="#1f2f3c" d="M838.903 327.399v-54.726h60.926v115.524h-60.926v-51.4h-1.334v52.734h63.594V271.34h-63.594v56.059h1.334m8.794 74.262v-.666h-16.05v-4.24h15.384v4.906h.666v-.666.666h.667v-6.24h-18.05v6.907h18.05v-.667h-.667M672.827 561.78v.667h193.762v13.364H673.493V561.78h-.666v.667-.667h-.667v15.364h195.763v-16.03H672.16v.666h.667"/>
  <path fill="#1f2f3c" d="M698.199 547.11v.666H891.96v13.364H698.865v-14.03h-.666v.666-.667h-.667v15.363h195.763v-16.03H697.532v.667h.667"/>
  <path fill="#1f2f3c" d="M723.57 532.437v.667h193.763v13.364H724.237v-14.03h-.666v.666-.667h-.667v15.364h195.761v-16.03H722.904v.666h.667"/>
  <path fill="#1f2f3c" d="M748.941 517.766v.667h193.763v13.364H749.608v-14.03h-.667v.666-.667h-.666v15.365h195.762V517.1H748.275v.666h.666"/>
  <path fill="#1f2f3c" d="m961.248 576.56.667-.004-.336-59.456h-18.875v14.696l-25.37-.025v14.697l-25.373-.027v14.698l-25.386-.026.361 16.114h94.983l-.004-.671-.667.004v-.666H868.24l-.303-13.446 25.358.025v-14.697l25.37.027v-14.698l25.372.026v-14.698h16.216l.328 58.13.667-.003v-.666.666"/>
  <path fill="#1f2f3c" d="M962.727 447.396H935.77l-.496.341-76.671 52.857v75.755c0 .18.032.352.077.517h3.847c.045-.165.076-.337.076-.517v-73.654l36.45-25.13v68.66c0 .346.097.665.251.95h3.5c.155-.285.25-.604.25-.95v-71.098l-.03-.298 31.367-21.625v63.645c0 .403.121.776.327 1.09h3.348c.204-.314.325-.687.325-1.09v-65.453h24.335a2 2 0 0 0 0-4m-282.962 129.47c.045-.165.076-.337.076-.517v-73.654l36.452-25.13v68.66c0 .346.096.665.25.95h3.5c.154-.285.25-.604.25-.95v-71.098l-.03-.299 31.366-21.624v63.645c0 .403.121.776.327 1.09h3.346c.206-.314.327-.687.327-1.09v-65.453h24.336a2 2 0 0 0 0-4h-26.959l-.494.341h-.002l-76.669 52.857v75.755c0 .18.032.352.077.517h3.847M42.202 344.813v141.418h289.913V206.733h-1.334v278.164H43.535V344.813h-1.333m289.913-157.437V84.844H42.202v240.612h1.333V86.177h287.246v101.199h1.334m590.68 61.925v-.666H815.479a2.975 2.975 0 0 1-2.972-2.971v-2.181a2.976 2.976 0 0 1 2.972-2.971h107.316a2.975 2.975 0 0 1 2.97 2.97v2.182a2.974 2.974 0 0 1-2.97 2.97v1.334a4.304 4.304 0 0 0 4.304-4.304v-2.181a4.304 4.304 0 0 0-4.304-4.304H815.479a4.306 4.306 0 0 0-4.306 4.304v2.181a4.306 4.306 0 0 0 4.306 4.304h107.316v-.667"/>
  <path fill="#1f2f3c" d="M23.347 486.268h377.286v88.607h1.334v-89.94H23.347v1.333"/>
  <path fill="#1f2f3c" d="M55.865 575.976h1.333v-90.157h-1.333zM91.377 380.49h.003c.045 0 .219-.006.493-.006.96-.004 3.174.077 5.434.583 1.129.249 2.264.602 3.252 1.058.991.456 1.82 1.008 2.427 1.619a4.001 4.001 0 0 0 5.662-5.652c-1.442-1.443-3.092-2.47-4.74-3.232-2.477-1.137-4.977-1.699-7.113-2.015a34.693 34.693 0 0 0-4.922-.361c-.51 0-.82.013-.876.016a4 4 0 1 0 .38 7.99m97.211 173.34c0-3.953.503-7.674 1.387-10.94v-12.438h10.541c6.59 0 11.93 10.467 11.93 23.379s-5.34 23.38-11.93 23.38h-10.541v-12.439c-.884-3.265-1.387-6.988-1.387-10.941"/>
  <path fill="#1f2f3c" d="M188.588 553.83h.667c-.002-3.895.496-7.562 1.362-10.765l.024-.085v-11.861h9.875c1.467.001 2.879.576 4.219 1.684 2.005 1.657 3.786 4.52 5.044 8.174 1.258 3.65 2.001 8.082 2 12.854.002 6.364-1.322 12.12-3.422 16.23-1.046 2.053-2.286 3.692-3.622 4.8-1.34 1.105-2.752 1.682-4.219 1.683h-9.875v-11.861l-.024-.086c-.866-3.202-1.364-6.87-1.362-10.766h-1.334c0 4.01.51 7.788 1.41 11.114l.644-.173h-.667v13.105h11.208c1.828 0 3.555-.732 5.07-1.99 2.275-1.892 4.137-4.958 5.453-8.767 1.313-3.812 2.073-8.377 2.073-13.29-.001-6.547-1.348-12.48-3.567-16.834-1.11-2.175-2.441-3.96-3.96-5.22-1.514-1.259-3.241-1.992-5.069-1.99h-11.208v13.104h.667l-.644-.174c-.9 3.327-1.41 7.105-1.41 11.115h.667"/>
  <path fill="#1f2f3c" d="M178.045 553.83c0 12.913 5.34 23.38 11.93 23.38 6.588 0 11.928-10.467 11.928-23.38 0-12.911-5.34-23.378-11.928-23.378-6.59 0-11.93 10.467-11.93 23.379"/>
  <path fill="#1f2f3c" d="M178.045 553.83h-.666c.001 6.55 1.348 12.483 3.566 16.835 1.111 2.176 2.442 3.96 3.96 5.222 1.515 1.258 3.242 1.99 5.07 1.99 1.828 0 3.553-.732 5.068-1.99 2.276-1.892 4.137-4.958 5.453-8.767 1.313-3.812 2.073-8.377 2.073-13.29-.001-6.547-1.348-12.48-3.566-16.834-1.111-2.175-2.442-3.96-3.96-5.22-1.515-1.259-3.24-1.992-5.068-1.99-1.828-.002-3.555.731-5.07 1.99-2.276 1.892-4.137 4.956-5.453 8.767-1.313 3.81-2.073 8.377-2.073 13.288h1.333c-.003-6.363 1.321-12.12 3.421-16.229 1.047-2.054 2.287-3.694 3.623-4.8 1.34-1.107 2.752-1.682 4.219-1.683 1.465.001 2.878.576 4.217 1.684 2.005 1.657 3.788 4.52 5.044 8.174 1.259 3.65 2.001 8.082 2 12.854.003 6.364-1.321 12.12-3.42 16.23-1.048 2.053-2.288 3.692-3.624 4.8-1.339 1.105-2.752 1.682-4.217 1.683-1.467-.001-2.879-.578-4.219-1.684-2.005-1.658-3.787-4.523-5.044-8.175-1.259-3.65-2.001-8.081-2-12.854h-.667"/>
  <path fill="#7d7f84" d="M181.576 553.961c0 8.895 3.327 16.105 7.43 16.105 4.102 0 7.429-7.21 7.429-16.105s-3.327-16.105-7.43-16.105c-4.102 0-7.429 7.21-7.429 16.105"/>
  <path fill="#1f2f3c" d="M181.576 553.961h-.667c.002 4.531.842 8.636 2.238 11.667.7 1.516 1.538 2.767 2.516 3.664.973.896 2.114 1.443 3.342 1.441 1.228.002 2.37-.545 3.343-1.441 1.463-1.348 2.627-3.484 3.455-6.128.822-2.645 1.298-5.805 1.298-9.203-.001-4.532-.841-8.637-2.237-11.667-.7-1.516-1.539-2.766-2.516-3.665-.973-.894-2.115-1.441-3.343-1.44-1.228-.001-2.369.546-3.342 1.44-1.463 1.348-2.627 3.484-3.455 6.129-.824 2.644-1.299 5.805-1.299 9.203h1.334c-.002-4.364.821-8.31 2.114-11.11.644-1.4 1.407-2.506 2.207-3.24.805-.734 1.617-1.088 2.441-1.088.824 0 1.636.354 2.442 1.089 1.202 1.097 2.308 3.045 3.082 5.543.779 2.496 1.239 5.533 1.239 8.806.001 4.363-.821 8.311-2.115 11.11-.644 1.399-1.406 2.506-2.206 3.238-.806.735-1.618 1.09-2.442 1.09-.824 0-1.636-.355-2.441-1.09-1.203-1.097-2.308-3.045-3.083-5.541-.778-2.496-1.238-5.535-1.238-8.807h-.667"/>
  <path fill="#1f2f3c" d="M103.93 382.801a6.34 6.34 0 0 1 1.39 2.058c.33.798.538 1.745.54 2.945v168.281c.001 5.86 4.748 10.607 10.608 10.609H223.12a2.668 2.668 0 0 0 0-5.334H116.468a5.25 5.25 0 0 1-3.73-1.545 5.248 5.248 0 0 1-1.545-3.73V387.804c.002-1.833-.333-3.516-.95-4.995a11.666 11.666 0 0 0-2.538-3.774 2.666 2.666 0 1 0-3.775 3.766m69.88-2.311h.003c.046 0 .219-.006.494-.006.96-.004 3.173.077 5.433.583 1.13.249 2.265.602 3.252 1.058.99.456 1.821 1.008 2.427 1.619a4 4 0 1 0 5.663-5.652c-1.443-1.443-3.093-2.47-4.74-3.232-2.478-1.137-4.977-1.699-7.114-2.015a34.69 34.69 0 0 0-4.921-.361c-.51 0-.822.013-.878.016a4 4 0 0 0 .382 7.99"/>
  <path fill="#1f2f3c" d="M186.363 382.801a6.34 6.34 0 0 1 1.39 2.058c.331.798.539 1.745.54 2.945v175.54a2.666 2.666 0 1 0 5.334 0v-175.54c.001-1.833-.334-3.516-.951-4.995a11.67 11.67 0 0 0-2.537-3.774 2.668 2.668 0 0 0-3.776 3.766"/>
  <path fill="#1f2f3c" d="M109.468 423.793h82.193a2.668 2.668 0 0 0 0-5.333h-82.193a2.666 2.666 0 1 0 0 5.333"/>
  <path fill="#1f2f3c" d="M149.092 420.785v142.219a2.667 2.667 0 0 0 5.333 0V420.785a2.667 2.667 0 0 0-5.333 0m-50.16 123.291 12.149-23.81a2.668 2.668 0 0 0-4.75-2.425l-12.15 23.81a2.666 2.666 0 0 0 4.751 2.425m9.531 7.054h-11.42a2.666 2.666 0 1 0 0 5.334h11.42a2.666 2.666 0 1 0 0-5.333"/>
  <path fill="#1f2f3c" d="M77.065 553.83c0-3.953.503-7.674 1.387-10.94v-12.438h10.542c6.588 0 11.93 10.467 11.93 23.379s-5.342 23.38-11.93 23.38H78.452v-12.439c-.884-3.265-1.387-6.988-1.387-10.941"/>
  <path fill="#1f2f3c" d="M77.065 553.83h.667c0-3.895.496-7.562 1.363-10.765l.023-.087v-11.86h9.876c1.466.002 2.879.577 4.218 1.685 2.005 1.657 3.787 4.52 5.044 8.174 1.259 3.65 2 8.082 2 12.854.002 6.364-1.322 12.12-3.42 16.23-1.049 2.053-2.288 3.692-3.624 4.8-1.34 1.105-2.752 1.682-4.218 1.683h-9.876v-11.861l-.023-.086c-.867-3.202-1.364-6.87-1.363-10.766h-1.334c0 4.01.51 7.788 1.41 11.114l.644-.173h-.667v13.105h11.21c1.827 0 3.553-.732 5.068-1.99 2.276-1.892 4.137-4.958 5.453-8.767 1.314-3.812 2.074-8.377 2.074-13.29-.002-6.547-1.348-12.48-3.567-16.834-1.111-2.175-2.442-3.96-3.96-5.22-1.515-1.259-3.24-1.992-5.069-1.99h-11.21v13.104h.668l-.644-.174c-.9 3.327-1.41 7.105-1.41 11.115h.667"/>
  <path fill="#1f2f3c" d="M66.522 553.83c0 12.913 5.342 23.38 11.93 23.38s11.929-10.467 11.929-23.38c0-12.911-5.34-23.378-11.93-23.378-6.587 0-11.929 10.467-11.929 23.379"/>
  <path fill="#1f2f3c" d="M66.522 553.83h-.666c.002 6.55 1.348 12.483 3.567 16.835 1.11 2.176 2.441 3.96 3.96 5.222 1.515 1.258 3.24 1.99 5.069 1.99 1.828 0 3.553-.732 5.068-1.99 2.276-1.892 4.137-4.958 5.453-8.767 1.314-3.812 2.074-8.377 2.074-13.29-.002-6.547-1.348-12.48-3.566-16.834-1.112-2.175-2.442-3.96-3.96-5.22-1.516-1.259-3.241-1.992-5.07-1.99-1.828-.002-3.553.731-5.068 1.99-2.276 1.892-4.137 4.956-5.453 8.767-1.314 3.81-2.074 8.377-2.074 13.288h1.333c-.002-6.363 1.322-12.12 3.421-16.229 1.048-2.054 2.288-3.694 3.624-4.8 1.339-1.107 2.751-1.682 4.218-1.683 1.466.001 2.878.576 4.217 1.684 2.006 1.657 3.788 4.52 5.044 8.174 1.26 3.65 2.002 8.082 2.001 12.854.002 6.364-1.322 12.12-3.421 16.23-1.048 2.053-2.288 3.692-3.624 4.8-1.339 1.105-2.751 1.682-4.217 1.683-1.467-.001-2.88-.578-4.218-1.684-2.005-1.658-3.788-4.523-5.044-8.175-1.259-3.65-2-8.081-2-12.854h-.668"/>
  <path fill="#fff" d="M70.054 553.961c0 8.895 3.326 16.105 7.429 16.105s7.429-7.21 7.429-16.105-3.326-16.105-7.43-16.105c-4.102 0-7.428 7.21-7.428 16.105"/>
  <path fill="#1f2f3c" d="M70.054 553.961h-.667c.002 4.531.841 8.636 2.237 11.667.7 1.516 1.54 2.767 2.517 3.664.972.896 2.114 1.443 3.342 1.441 1.227.002 2.37-.545 3.342-1.441 1.464-1.348 2.627-3.484 3.455-6.128.824-2.645 1.298-5.805 1.299-9.203-.002-4.532-.842-8.637-2.238-11.667-.7-1.516-1.539-2.766-2.516-3.665-.972-.894-2.115-1.441-3.342-1.44-1.228-.001-2.37.546-3.342 1.44-1.464 1.348-2.627 3.484-3.455 6.129-.824 2.644-1.3 5.805-1.3 9.203h1.334c-.002-4.364.822-8.31 2.115-11.11.644-1.4 1.406-2.506 2.207-3.24.804-.734 1.617-1.088 2.44-1.088.825 0 1.637.354 2.442 1.089 1.203 1.097 2.308 3.045 3.083 5.543.778 2.496 1.239 5.533 1.238 8.806.002 4.363-.821 8.311-2.114 11.11-.645 1.399-1.406 2.506-2.207 3.238-.805.735-1.617 1.09-2.441 1.09-.824 0-1.637-.355-2.441-1.09-1.204-1.097-2.309-3.045-3.083-5.541-.778-2.496-1.24-5.535-1.239-8.807h-.666m543.683-15.953 80.968 2.908 111.386-1.077 42.764-2.102s8.757-23.486 5.364-36.093c-3.395-12.605-7.758-17.939-17.455-17.939s-26.283 7.897-26.96 13.646c-.676 5.748-5.508 12.293-5.508 12.293H688.888s-4.364-24.97-19.879-33.696c-15.516-8.727-35.878-8.243-46.545 0-10.667 8.243-8.727 62.06-8.727 62.06"/>
  <path fill="#1f2f3c" d="m613.737 538.008-.024.665 80.983 2.91 111.415-1.078 43.214-2.123.154-.411c.008-.038 6.177-16.522 6.188-29.475-.002-2.514-.234-4.901-.806-7.025-1.71-6.346-3.668-10.928-6.52-13.979-2.853-3.057-6.616-4.464-11.577-4.453-5.021.006-11.635 2.01-17.159 4.736-2.758 1.366-5.238 2.913-7.101 4.513-1.852 1.606-3.14 3.247-3.361 4.985-.316 2.723-1.658 5.746-2.931 8.06a41.478 41.478 0 0 1-2.253 3.635c-.13.185-.199.279-.2.28l.537.396v-.667H688.888v.667l.656-.115c-.005-.03-1.103-6.312-4.161-13.716-3.063-7.397-8.075-15.952-16.047-20.446-7.76-4.363-16.688-6.45-25.059-6.451-8.613.004-16.648 2.204-22.221 6.504-2.156 1.684-3.69 4.832-4.915 8.85-1.821 6.033-2.865 14.074-3.464 22.114-.598 8.037-.745 16.067-.745 22.027 0 5.78.139 9.614.139 9.621l.022.62.62.021.024-.665.666-.024c0-.002-.034-.95-.068-2.625-.035-1.674-.07-4.069-.07-6.948 0-7.917.262-19.504 1.495-29.835.616-5.165 1.477-10.016 2.657-13.919 1.171-3.906 2.7-6.844 4.455-8.181 5.245-4.06 13.017-6.23 21.405-6.227 8.151-.001 16.871 2.04 24.406 6.28 7.542 4.232 12.469 12.526 15.468 19.794a75.081 75.081 0 0 1 3.168 9.453c.322 1.227.55 2.227.698 2.918a33.886 33.886 0 0 1 .214 1.065l.096.552h116.305l.2-.271c.012-.016 1.235-1.674 2.55-4.067 1.311-2.396 2.725-5.52 3.085-8.545.116-1.136 1.156-2.638 2.906-4.13 2.612-2.247 6.703-4.502 11.019-6.169 4.313-1.672 8.868-2.76 12.372-2.757 4.735.01 8.003 1.27 10.604 4.032 2.601 2.767 4.524 7.153 6.207 13.413.53 1.97.758 4.248.758 6.68.002 6.275-1.521 13.548-3.049 19.23a132.35 132.35 0 0 1-2.103 7.026c-.286.868-.524 1.558-.69 2.03-.167.47-.26.721-.262.721l.626.233-.034-.665-42.749 2.1-111.357 1.077-80.954-2.908-.024.667.666-.024-.666.024"/>
  <path fill="#1f2f3c" d="M830.179 537.28c0-6.752-.859-13.11-2.368-18.685V497.35h-18.007c-11.252 0-20.373 17.877-20.373 39.929 0 22.053 9.121 39.93 20.373 39.93h18.007v-21.245c1.509-5.576 2.368-11.932 2.368-18.685"/>
  <path fill="#1f2f3c" d="M830.179 537.28h.666c0-6.808-.865-13.221-2.392-18.859l-.642.174h.666v-21.91h-18.673c-2.993-.002-5.83 1.193-8.356 3.29-3.79 3.149-6.941 8.312-9.168 14.764-2.224 6.451-3.516 14.202-3.516 22.541.001 11.119 2.293 21.19 6.04 28.537 1.875 3.673 4.116 6.67 6.644 8.768 2.525 2.097 5.363 3.292 8.356 3.29h18.673v-21.91h-.666l.642.175c1.527-5.638 2.392-12.05 2.392-18.86h-1.333c0 6.696-.852 12.997-2.345 18.512l-.023.085v20.666h-17.34c-2.632 0-5.155-1.039-7.504-2.984-3.521-2.914-6.593-7.877-8.76-14.171-2.17-6.292-3.443-13.906-3.443-22.108-.002-10.933 2.267-20.827 5.895-27.93 1.812-3.554 3.961-6.405 6.308-8.349 2.35-1.944 4.872-2.982 7.504-2.984h17.34v20.667l.023.085c1.493 5.515 2.345 11.815 2.345 18.511h.667"/>
  <path fill="#5b5c63" d="M848.184 537.28c0 22.053-9.121 39.93-20.373 39.93s-20.375-17.877-20.375-39.93c0-22.052 9.123-39.93 20.375-39.93s20.373 17.878 20.373 39.93"/>
  <path fill="#1f2f3c" d="M848.184 537.28h-.667c.003 10.935-2.266 20.828-5.894 27.932-1.812 3.552-3.962 6.404-6.308 8.347-2.35 1.945-4.872 2.984-7.504 2.985-2.632-.001-5.156-1.04-7.506-2.985-3.521-2.914-6.592-7.876-8.758-14.171-2.171-6.292-3.444-13.906-3.444-22.108-.002-10.933 2.268-20.827 5.894-27.93 1.812-3.554 3.962-6.405 6.308-8.349 2.35-1.944 4.874-2.982 7.506-2.984 2.632.002 5.154 1.04 7.504 2.984 3.521 2.915 6.593 7.877 8.76 14.171 2.169 6.293 3.444 13.908 3.442 22.108h1.334c-.002-11.119-2.294-21.19-6.04-28.537-1.875-3.674-4.116-6.67-6.644-8.767-2.526-2.098-5.363-3.293-8.356-3.292-2.995-.001-5.831 1.194-8.356 3.292-3.792 3.148-6.943 8.31-9.17 14.763-2.224 6.451-3.514 14.202-3.516 22.541.003 11.119 2.294 21.19 6.04 28.537 1.876 3.673 4.116 6.67 6.646 8.768 2.525 2.097 5.361 3.292 8.356 3.29 2.993.002 5.83-1.193 8.356-3.29 3.79-3.148 6.941-8.31 9.168-14.762 2.224-6.454 3.516-14.204 3.516-22.543h-.667"/>
  <path fill="#dedfdf" d="M842.153 537.503c0 15.192-5.68 27.506-12.688 27.506-7.008 0-12.689-12.314-12.689-27.506s5.681-27.508 12.69-27.508c7.007 0 12.687 12.316 12.687 27.508"/>
  <path fill="#1f2f3c" d="M842.153 537.503h-.666c.002 7.512-1.41 14.309-3.655 19.17-1.12 2.431-2.45 4.374-3.879 5.683-1.434 1.312-2.938 1.985-4.488 1.987-1.55-.002-3.054-.675-4.489-1.987-2.147-1.962-4.055-5.356-5.396-9.672-1.345-4.316-2.137-9.548-2.137-15.181-.002-7.513 1.41-14.31 3.656-19.172 1.12-2.431 2.448-4.374 3.877-5.683 1.435-1.312 2.939-1.985 4.49-1.987 1.549.002 3.053.675 4.487 1.987 2.147 1.963 4.055 5.357 5.398 9.673 1.345 4.316 2.137 9.547 2.136 15.182h1.333c-.001-7.68-1.43-14.637-3.777-19.73-1.176-2.548-2.582-4.633-4.188-6.108-1.602-1.471-3.436-2.337-5.39-2.337-1.954 0-3.788.866-5.389 2.337-2.408 2.213-4.375 5.795-5.77 10.26-1.39 4.464-2.195 9.818-2.197 15.578.003 7.68 1.431 14.636 3.779 19.73 1.176 2.545 2.581 4.63 4.188 6.106 1.601 1.472 3.435 2.338 5.39 2.337 1.953.001 3.787-.865 5.389-2.337 2.406-2.214 4.373-5.795 5.768-10.259 1.392-4.466 2.197-9.819 2.197-15.577h-.667M668.947 497.35H650.94c-11.253 0-20.374 17.878-20.374 39.93 0 22.053 9.121 39.93 20.374 39.93h18.006c11.252 0 20.373-17.877 20.373-39.93 0-22.052-9.121-39.93-20.373-39.93"/>
  <path fill="#1f2f3c" d="M668.947 497.35v-.666H650.94c-2.994-.001-5.83 1.194-8.356 3.29-3.792 3.15-6.942 8.313-9.169 14.765-2.224 6.451-3.516 14.202-3.516 22.541.001 11.119 2.293 21.19 6.04 28.537 1.876 3.673 4.116 6.67 6.645 8.768 2.526 2.097 5.362 3.292 8.356 3.29h18.006c2.993.002 5.83-1.193 8.356-3.29 3.792-3.148 6.941-8.31 9.168-14.762 2.224-6.454 3.516-14.204 3.516-22.543-.002-11.119-2.294-21.19-6.04-28.537-1.875-3.674-4.115-6.67-6.644-8.768-2.526-2.097-5.363-3.292-8.356-3.29v1.332c2.632.002 5.154 1.04 7.505 2.984 3.52 2.914 6.592 7.877 8.759 14.171 2.169 6.293 3.444 13.908 3.442 22.108.003 10.935-2.266 20.828-5.894 27.932-1.811 3.552-3.962 6.404-6.307 8.347-2.35 1.945-4.873 2.984-7.505 2.984H650.94c-2.633 0-5.156-1.039-7.505-2.984-3.521-2.914-6.593-7.877-8.76-14.171-2.17-6.292-3.443-13.906-3.443-22.108-.001-10.933 2.267-20.827 5.895-27.93 1.812-3.554 3.961-6.405 6.308-8.349 2.35-1.944 4.872-2.982 7.505-2.984h18.006v-.666m-203.978-.001h-19.587c-12.24 0-22.162 17.878-22.162 39.93 0 22.053 9.922 39.93 22.162 39.93h19.587c12.24 0 22.163-17.877 22.163-39.93 0-22.052-9.923-39.93-22.163-39.93"/>
  <path fill="#1f2f3c" d="M464.968 497.35v-.666h-19.587c-3.225-.001-6.289 1.182-9.03 3.275-4.116 3.14-7.548 8.306-9.972 14.762-2.42 6.457-3.827 14.215-3.827 22.559.001 11.127 2.497 21.207 6.575 28.559 2.04 3.674 4.478 6.67 7.224 8.763 2.741 2.092 5.805 3.275 9.03 3.274h19.587c3.225.001 6.288-1.182 9.03-3.274 4.115-3.14 7.549-8.306 9.971-14.762 2.422-6.458 3.827-14.215 3.828-22.56-.002-11.127-2.497-21.207-6.576-28.557-2.04-3.676-4.478-6.672-7.222-8.764-2.743-2.093-5.806-3.276-9.031-3.275v1.333c2.895.002 5.661 1.052 8.223 3.002 3.838 2.92 7.174 7.88 9.53 14.17 2.358 6.288 3.743 13.896 3.743 22.091.001 10.927-2.464 20.81-6.408 27.91-1.97 3.551-4.307 6.404-6.865 8.351-2.562 1.951-5.328 3.002-8.223 3.002h-19.587c-2.894 0-5.661-1.051-8.222-3.002-3.839-2.92-7.175-7.88-9.531-14.17-2.359-6.287-3.744-13.896-3.743-22.091-.002-10.925 2.464-20.81 6.407-27.91 1.97-3.551 4.308-6.402 6.867-8.351 2.561-1.95 5.328-3 8.222-3.002h19.587v-.666M655.232 530.8c0-7.848-.997-15.236-2.752-21.717V484.39h-20.928c-13.079 0-23.68 20.779-23.68 46.409 0 25.632 10.601 46.41 23.68 46.41h20.928v-24.691c1.755-6.482 2.752-13.87 2.752-21.72"/>
  <path fill="#1f2f3c" d="M655.232 530.8h.667c0-7.904-1.004-15.348-2.775-21.89l-.644.173h.667v-25.359h-21.595c-3.45 0-6.721 1.377-9.643 3.801-4.385 3.64-8.04 9.624-10.624 17.111-2.58 7.487-4.08 16.484-4.08 26.164.002 12.91 2.664 24.6 7.008 33.12 2.175 4.26 4.771 7.73 7.696 10.156 2.922 2.424 6.192 3.801 9.643 3.8h21.595v-25.357h-.667l.644.173c1.77-6.543 2.775-13.987 2.775-21.892h-1.334c0 7.792-.99 15.125-2.729 21.544l-.023.085v24.114h-20.261c-3.088 0-6.047-1.22-8.792-3.494-4.115-3.405-7.69-9.19-10.213-16.518-2.527-7.327-4.008-16.188-4.008-25.731-.003-12.723 2.637-24.236 6.862-32.513 2.111-4.139 4.618-7.464 7.359-9.735 2.745-2.273 5.704-3.493 8.792-3.495h20.261v24.115l.023.086c1.739 6.418 2.73 13.751 2.73 21.542h.666"/>
  <path fill="#5b5c63" d="M676.16 530.801c0 25.631-10.601 46.41-23.68 46.41-13.079 0-23.68-20.779-23.68-46.41 0-25.631 10.601-46.409 23.68-46.409 13.079 0 23.68 20.778 23.68 46.41"/>
  <path fill="#1f2f3c" d="M676.16 530.801h-.667c.002 12.723-2.637 24.236-6.862 32.514-2.111 4.138-4.618 7.463-7.359 9.734-2.745 2.274-5.704 3.494-8.792 3.495-3.09-.001-6.047-1.221-8.792-3.495-4.115-3.405-7.69-9.189-10.213-16.518-2.527-7.327-4.01-16.188-4.008-25.73-.003-12.724 2.637-24.237 6.862-32.513 2.111-4.14 4.618-7.465 7.359-9.736 2.745-2.273 5.703-3.493 8.792-3.493 3.088 0 6.047 1.22 8.792 3.493 4.113 3.405 7.69 9.19 10.213 16.519 2.527 7.326 4.008 16.188 4.008 25.73h1.334c-.002-12.909-2.664-24.6-7.008-33.12-2.175-4.26-4.772-7.73-7.696-10.156-2.922-2.424-6.192-3.801-9.643-3.8-3.45-.001-6.723 1.376-9.643 3.8-4.385 3.64-8.04 9.624-10.624 17.111-2.58 7.487-4.08 16.484-4.08 26.165.002 12.908 2.663 24.599 7.008 33.12 2.175 4.259 4.771 7.73 7.696 10.155 2.92 2.424 6.192 3.801 9.643 3.8 3.45.001 6.721-1.376 9.643-3.8 4.385-3.64 8.04-9.624 10.624-17.11 2.58-7.488 4.08-16.484 4.08-26.165h-.667"/>
  <path fill="#dedfdf" d="M669.15 531.059c0 17.657-6.602 31.97-14.747 31.97-8.144 0-14.747-14.313-14.747-31.97 0-17.658 6.603-31.971 14.747-31.971 8.145 0 14.748 14.313 14.748 31.97"/>
  <path fill="#1f2f3c" d="M669.15 531.059h-.666c.003 8.744-1.64 16.658-4.259 22.328-1.305 2.834-2.856 5.103-4.532 6.638-1.681 1.538-3.456 2.336-5.29 2.338-1.834-.002-3.61-.8-5.29-2.338-2.516-2.301-4.738-6.261-6.302-11.29-1.568-5.027-2.49-11.118-2.488-17.676-.003-8.744 1.64-16.66 4.257-22.328 1.307-2.835 2.857-5.104 4.533-6.639 1.68-1.539 3.456-2.336 5.29-2.337 1.834.001 3.609.798 5.29 2.337 2.516 2.302 4.739 6.261 6.303 11.29 1.567 5.027 2.488 11.118 2.488 17.677h1.333c-.001-8.912-1.66-16.984-4.38-22.887-1.362-2.95-2.99-5.363-4.842-7.063-1.85-1.698-3.954-2.689-6.192-2.688-2.238 0-4.343.99-6.191 2.688-2.776 2.552-5.057 6.7-6.675 11.876-1.613 5.178-2.548 11.39-2.548 18.074.002 8.912 1.66 16.984 4.38 22.885 1.363 2.952 2.99 5.364 4.843 7.064 1.848 1.699 3.953 2.69 6.19 2.688 2.24.001 4.343-.99 6.193-2.688 2.776-2.552 5.057-6.7 6.674-11.876 1.612-5.177 2.548-11.39 2.548-18.073h-.666"/>
  <path fill="#fff" d="M851.576 469.375c-3.775-11.795-83.501-176.438-89.635-183.043-6.132-6.604-120.298-41.987-120.298-41.987s-52.366-15.568-69.348-16.51c-16.983-.944-162.756 11.321-165.587 12.265-2.83.944-21.701 59.441-26.89 84.916-5.19 25.475-7.549 77.37-7.549 128.319 0 50.95 7.076 88.218 15.096 88.218s217.482 6.134 220.783 6.134c3.303 0 8.02-3.775 16.512-15.098 8.492-11.321 15.568-45.288 25.003-49.533 9.436-4.247 19.814-1.888 25.004 9.907 5.189 11.793 3.773 48.59 3.773 48.59s76.765-.428 127.65-1.714a1106.214 1106.214 0 0 1 13.36-34.237c8.083-19.7 21.722-17.68 27.783-12.629 5.466 4.554 4.771 29.215 1.622 44.764.746-.138 1.2-.281 1.305-.429 2.359-3.303 4.717-12.267 6.605-24.06 1.887-11.793-1.416-32.08-5.189-43.873"/>
  <path fill="#1f2f3c" d="m851.576 469.375.635-.204c-.5-1.554-2.154-5.394-4.711-11.052-8.944-19.767-28.839-61.336-47.175-98.696-9.168-18.68-17.944-36.307-24.766-49.627-3.411-6.661-6.334-12.245-8.575-16.35a152.348 152.348 0 0 0-2.828-5.006c-.765-1.273-1.31-2.107-1.725-2.561-.504-.532-1.336-1.052-2.539-1.696-4.48-2.372-14.043-6.056-25.94-10.291-35.667-12.69-92.107-30.181-92.112-30.183l-.001-.001-.006-.001c-.004-.002-13.1-3.895-28.325-7.908-15.239-4.012-32.553-8.146-41.176-8.631a45.606 45.606 0 0 0-2.436-.052c-12.65.001-52.743 2.853-90.064 5.82a5614.232 5614.232 0 0 0-50.075 4.192c-6.732.599-12.34 1.119-16.353 1.519-2.007.198-3.615.369-4.768.502-.577.068-1.04.126-1.387.175-.173.025-.317.048-.436.07a2.255 2.255 0 0 0-.317.074c-.301.11-.445.275-.607.453-.296.351-.588.844-.937 1.519-1.287 2.508-3.224 7.487-5.51 13.959-6.847 19.402-16.729 52.066-20.278 69.484-5.208 25.588-7.559 77.473-7.561 128.452 0 25.506 1.769 47.59 4.55 63.331 1.392 7.873 3.032 14.158 4.855 18.524.913 2.186 1.87 3.894 2.9 5.097 1.024 1.195 2.179 1.929 3.457 1.933 3.974 0 58.37 1.533 112.142 3.067 26.89.766 53.633 1.533 73.86 2.108 20.234.575 33.918.957 34.781.958 1.92-.009 4.045-1.069 6.753-3.47 2.711-2.41 6.031-6.212 10.292-11.894 2.188-2.921 4.23-7.2 6.246-12.064 3.018-7.292 5.958-15.898 9.018-23.054 1.53-3.576 3.088-6.79 4.684-9.277 1.591-2.494 3.231-4.237 4.795-4.931 2.773-1.247 5.616-1.903 8.361-1.903 3.176.001 6.219.87 8.922 2.73 2.7 1.86 5.066 4.718 6.837 8.74 1.619 3.662 2.62 10.07 3.18 16.993.565 6.928.713 14.396.713 20.297 0 3.219-.044 5.972-.088 7.92-.044 1.948-.086 3.085-.086 3.088l-.028.696.697-.004c.003 0 76.767-.428 127.664-1.715l.452-.011.156-.425c1.884-5.09 6.99-18.712 13.35-34.213 2.465-6.005 5.43-9.915 8.486-12.317 3.059-2.402 6.21-3.316 9.137-3.319 3.623-.003 6.918 1.43 9.118 3.265.598.495 1.172 1.355 1.66 2.527 1.48 3.521 2.156 9.724 2.15 16.65 0 8.286-.937 17.645-2.416 24.943l-.196.968.971-.181a7.68 7.68 0 0 0 .977-.232c.135-.044.255-.09.374-.152.118-.067.244-.136.376-.313 1.272-1.793 2.444-4.892 3.58-9.058 1.129-4.161 2.194-9.37 3.14-15.284.385-2.406.556-5.136.556-8.065-.003-11.71-2.727-26.601-5.768-36.117l-.635.204-.636.202c2.997 9.355 5.71 24.203 5.705 35.71 0 2.877-.169 5.544-.538 7.856-.942 5.88-1.999 11.05-3.111 15.145-1.105 4.09-2.29 7.123-3.379 8.632l.327.233-.244-.32-.083.087.327.233-.244-.32.103.135-.092-.143-.011.008.103.135-.092-.143-.015.007c-.09.05-.456.158-.963.25l.122.655.653.133c1.499-7.406 2.441-16.822 2.443-25.209-.002-4.677-.294-9.032-.956-12.553-.334-1.763-.758-3.318-1.298-4.61-.541-1.291-1.194-2.332-2.037-3.037-2.435-2.026-5.993-3.572-9.97-3.574-3.209-.003-6.682 1.022-9.962 3.603-3.281 2.582-6.367 6.698-8.895 12.86a1106.014 1106.014 0 0 0-13.366 34.257l.624.232-.016-.667c-25.438.644-57.348 1.072-82.899 1.34a11073.986 11073.986 0 0 1-44.74.375l.004.666.667.025c0-.005.176-4.595.176-11.058 0-5.924-.148-13.42-.718-20.405-.576-6.994-1.549-13.45-3.289-17.421-1.85-4.21-4.372-7.286-7.301-9.302-2.93-2.019-6.259-2.967-9.678-2.965-2.957 0-5.984.705-8.908 2.021-1.317.595-2.522 1.663-3.677 3.068-2.015 2.461-3.885 5.984-5.705 10.055-2.726 6.104-5.323 13.44-7.934 20.169-2.605 6.724-5.242 12.852-7.946 16.45-4.231 5.642-7.515 9.388-10.112 11.695-2.6 2.316-4.484 3.143-5.867 3.135-.788 0-14.525-.384-34.744-.959-30.339-.862-75.34-2.156-113.51-3.233-38.175-1.079-69.487-1.941-72.529-1.941-.726.003-1.548-.426-2.445-1.468-1.565-1.81-3.167-5.355-4.601-10.306-4.331-14.866-7.386-42.389-7.383-75.778-.003-50.922 2.364-102.823 7.535-128.186 2.584-12.686 8.596-33.678 14.312-51.588 2.857-8.956 5.641-17.145 7.882-23.144 1.122-2.998 2.108-5.45 2.894-7.165.392-.856.734-1.528 1.008-1.977.134-.224.253-.392.336-.488l.082-.086.003-.001-.152-.213.083.245.069-.032-.152-.213.083.245-.016-.045.013.046.003-.001-.016-.045.013.046c.047-.014.296-.058.647-.106 11.224-1.552 138.144-12.182 162.333-12.178.959 0 1.753.016 2.361.051 8.36.459 25.72 4.581 40.911 8.588a1062.107 1062.107 0 0 1 28.285 7.897l.19-.64-.198.638c.006.001 1.783.552 4.916 1.532 10.966 3.43 38.467 12.098 63.891 20.629 12.712 4.265 24.905 8.496 34.247 12.019 4.67 1.76 8.628 3.344 11.572 4.662 1.47.658 2.689 1.251 3.609 1.759.916.503 1.544.948 1.773 1.201.14.15.398.495.716.984 1.252 1.914 3.548 6.05 6.582 11.798 10.622 20.132 30.382 60.164 47.881 96.401 8.75 18.119 16.935 35.292 23.13 48.557 3.1 6.632 5.7 12.288 7.625 16.594 1.922 4.3 3.178 7.28 3.553 8.458l.636-.202"/>
  <path fill="#dedfdf" d="M678.44 541.553s76.765-.428 127.65-1.714a1106.214 1106.214 0 0 1 13.36-34.237c8.083-19.7 21.722-17.68 27.783-12.629 5.466 4.554 4.771 29.215 1.622 44.764.746-.138 1.2-.281 1.305-.429 2.359-3.303 4.717-12.267 6.605-24.06 1.887-11.793-1.416-32.08-5.189-43.873-3.775-11.795-83.501-176.438-89.635-183.043-6.132-6.604-120.298-41.987-120.298-41.987s-52.366-15.568-69.348-16.51l-.316-.014.641 2.99s14.11 27.233 11.404 316.218c14.272.404 23.453.658 24.124.658 3.303 0 8.02-3.775 16.512-15.098 8.492-11.321 15.568-45.288 25.003-49.533 9.436-4.247 19.814-1.888 25.004 9.907 5.189 11.793 3.773 48.59 3.773 48.59"/>
  <path fill="#1f2f3c" d="m678.44 541.553.004.667c.003 0 76.767-.428 127.664-1.715l.452-.011.156-.425c1.884-5.09 6.99-18.712 13.35-34.213 2.465-6.005 5.43-9.915 8.486-12.317 3.059-2.402 6.21-3.316 9.137-3.319 3.623-.003 6.918 1.43 9.118 3.265.598.495 1.172 1.355 1.66 2.527 1.48 3.521 2.156 9.724 2.15 16.65 0 8.286-.937 17.645-2.416 24.943l-.196.968.971-.181a7.68 7.68 0 0 0 .977-.232c.135-.044.255-.09.374-.152.118-.067.244-.136.376-.313 1.272-1.793 2.444-4.892 3.58-9.058 1.129-4.161 2.194-9.37 3.14-15.284.385-2.406.556-5.136.556-8.065-.003-11.71-2.727-26.601-5.768-36.117-.5-1.554-2.154-5.394-4.711-11.052-8.944-19.767-28.839-61.336-47.175-98.696-9.168-18.68-17.944-36.307-24.766-49.627-3.411-6.661-6.334-12.245-8.575-16.35a152.348 152.348 0 0 0-2.828-5.006c-.765-1.273-1.31-2.107-1.725-2.561-.504-.532-1.336-1.052-2.539-1.696-4.48-2.372-14.043-6.056-25.94-10.291-35.667-12.69-92.107-30.181-92.112-30.183l-.001-.001-.006-.001c-.004-.002-13.1-3.895-28.325-7.908-15.239-4.012-32.553-8.146-41.176-8.631h-.005l-.322-.012-.858-.033.84 3.914.041.08.024-.013-.024.012v.001l.024-.013-.024.012c.105.199 3.059 6.713 5.94 40.628 2.888 33.923 5.733 95.273 5.733 205.287 0 21.432-.108 44.71-.344 69.993l-.006.653.654.02c14.28.403 23.436.655 24.143.656 1.92-.009 4.045-1.069 6.753-3.47 2.711-2.41 6.031-6.212 10.292-11.894 2.188-2.921 4.23-7.2 6.246-12.064 3.018-7.292 5.958-15.898 9.018-23.054 1.53-3.576 3.088-6.79 4.684-9.277 1.591-2.494 3.231-4.237 4.795-4.931 2.773-1.247 5.616-1.903 8.361-1.903 3.176.001 6.219.87 8.922 2.73 2.7 1.86 5.066 4.718 6.837 8.74 1.619 3.662 2.62 10.07 3.18 16.993.565 6.928.713 14.396.713 20.297 0 3.219-.044 5.972-.088 7.92-.044 1.948-.086 3.085-.086 3.088l-.028.696.697-.004-.004-.667.667.025c0-.005.176-4.595.176-11.058 0-5.924-.148-13.42-.718-20.405-.576-6.994-1.549-13.45-3.289-17.421-1.85-4.21-4.372-7.286-7.301-9.302-2.93-2.019-6.259-2.967-9.678-2.965-2.957 0-5.984.705-8.908 2.021-1.317.595-2.522 1.663-3.677 3.068-2.015 2.461-3.885 5.984-5.705 10.055-2.726 6.104-5.323 13.44-7.934 20.169-2.605 6.724-5.242 12.852-7.946 16.45-4.231 5.642-7.515 9.388-10.112 11.695-2.6 2.316-4.484 3.143-5.867 3.135-.635 0-9.841-.254-24.105-.657l-.019.666.667.007c.236-25.287.344-48.57.344-70.005 0-111.784-2.938-173.354-5.876-206.998-2.948-33.652-5.863-39.342-5.947-39.529l-.592.307.652-.14-.641-2.988-.652.138-.026.667.316.012.026-.665-.038.665c8.36.459 25.72 4.581 40.911 8.588a1062.107 1062.107 0 0 1 28.285 7.897l.19-.64-.198.638c.006.001 1.783.552 4.916 1.532 10.966 3.43 38.467 12.098 63.891 20.629 12.712 4.265 24.905 8.496 34.247 12.019 4.67 1.76 8.628 3.344 11.572 4.662 1.47.658 2.689 1.251 3.609 1.759.916.503 1.544.948 1.773 1.201.14.15.398.495.716.984 1.252 1.914 3.548 6.05 6.582 11.798 10.622 20.132 30.382 60.164 47.881 96.401 8.75 18.119 16.935 35.292 23.13 48.557 3.1 6.632 5.7 12.288 7.625 16.594 1.922 4.3 3.178 7.28 3.553 8.458 2.997 9.355 5.71 24.203 5.705 35.71 0 2.877-.169 5.544-.538 7.856-.942 5.88-1.999 11.05-3.111 15.145-1.105 4.09-2.29 7.123-3.379 8.632l.327.233-.244-.32-.083.087.327.233-.244-.32.103.135-.092-.143-.011.008.103.135-.092-.143-.015.007c-.09.05-.456.158-.963.25l.122.655.653.133c1.499-7.406 2.441-16.822 2.443-25.209-.002-4.677-.294-9.032-.956-12.553-.334-1.763-.758-3.318-1.298-4.61-.541-1.291-1.194-2.332-2.037-3.037-2.435-2.026-5.993-3.572-9.97-3.574-3.209-.003-6.682 1.022-9.962 3.603-3.281 2.582-6.367 6.698-8.895 12.86a1106.014 1106.014 0 0 0-13.366 34.257l.624.232-.016-.667c-25.438.644-57.348 1.072-82.899 1.34a11073.986 11073.986 0 0 1-44.74.375l.004.666.667.025-.667-.025"/>
  <path fill="#1f2f3c" d="M849.95 498.453c2.333 9.312 1.374 27.096-1.095 39.284.746-.138 1.2-.281 1.305-.429 2.359-3.303 4.717-12.267 6.605-24.06 1.239-7.748.234-19.153-1.669-29.416-.243 5.104-1.439 10.99-5.145 14.621"/>
  <path fill="#1f2f3c" d="m849.95 498.453-.646.162c.904 3.605 1.313 8.601 1.312 14.053.001 8.285-.936 17.641-2.415 24.937l-.196.968.971-.181a7.68 7.68 0 0 0 .977-.232c.135-.044.255-.09.374-.152.118-.067.244-.136.376-.313 1.272-1.793 2.444-4.892 3.58-9.058 1.129-4.161 2.194-9.37 3.14-15.284.384-2.4.554-5.122.554-8.042 0-6.692-.896-14.423-2.225-21.6l-1.048-5.654-.273 5.743c-.232 5.033-1.443 10.766-4.947 14.176l-.273.268.093.37.647-.16.465.475c3.91-3.849 5.09-9.89 5.347-15.066l-.667-.031-.655.121c1.319 7.113 2.203 14.783 2.203 21.358 0 2.866-.168 5.525-.537 7.832-.942 5.88-1.999 11.05-3.111 15.145-1.105 4.09-2.29 7.123-3.379 8.632l.327.233-.244-.32-.083.087.327.233-.244-.32.103.135-.092-.143-.011.008.103.135-.092-.143-.015.007c-.09.05-.456.158-.963.25l.122.655.653.133c1.499-7.405 2.441-16.817 2.441-25.202-.001-5.521-.405-10.59-1.352-14.378l-.646.163.465.476-.465-.476M648.33 483.881H373.18c2.158 34.62 7.878 57.672 14.184 57.672 8.02 0 217.482 6.134 220.783 6.134 3.303 0 8.02-3.775 16.512-15.098 8.087-10.78 14.89-42.077 23.67-48.708"/>
  <path fill="#1f2f3c" d="M648.33 483.881v-.666H372.47l.046.708c1.08 17.338 3.05 31.784 5.553 41.937 1.255 5.077 2.635 9.08 4.136 11.867.752 1.393 1.534 2.486 2.379 3.26.84.77 1.781 1.233 2.781 1.233 3.974 0 58.37 1.533 112.142 3.067 26.89.766 53.633 1.533 73.86 2.108 20.234.575 33.918.957 34.781.958 1.92-.009 4.045-1.069 6.753-3.47 2.711-2.41 6.031-6.212 10.292-11.894 2.084-2.78 4.034-6.792 5.956-11.368 2.882-6.86 5.683-14.988 8.582-22.002 1.448-3.507 2.92-6.735 4.426-9.374 1.503-2.641 3.051-4.686 4.574-5.833l1.586-1.197h-1.988v.666l-.401-.532c-2.355 1.79-4.436 5.055-6.461 9.128-3.024 6.108-5.86 14.05-8.702 21.474-2.834 7.415-5.694 14.322-8.638 18.24-4.231 5.641-7.515 9.387-10.112 11.694-2.6 2.316-4.484 3.143-5.867 3.135-.788 0-14.525-.384-34.744-.959-30.339-.862-75.34-2.156-113.51-3.233-38.175-1.079-69.487-1.941-72.529-1.941-.577 0-1.193-.26-1.881-.884-1.201-1.087-2.48-3.272-3.67-6.394-3.598-9.376-6.558-27.092-7.967-49.77l-.666.042v.667H648.33v-.667l-.401-.532.401.532M468.804 236.865h-.667v.662a4.553 4.553 0 0 0 4.931 4.536l26.89-2.24a4.554 4.554 0 0 0 4.174-4.538v-.66a4.555 4.555 0 0 0-4.93-4.537l-26.89 2.241a4.552 4.552 0 0 0-4.175 4.536h1.334a3.22 3.22 0 0 1 2.952-3.208l26.889-2.24.272-.012a3.227 3.227 0 0 1 3.215 3.22v.66a3.22 3.22 0 0 1-2.952 3.208l-26.89 2.242-.273.01a3.225 3.225 0 0 1-3.213-3.218v-.662h-.667"/>
  <path fill="#fff" d="M572.62 230.81s6.184 129.146 6.184 146.609c0 17.461 1.82 147.334 1.82 147.334l69.12.729s5.821-40.745 5.821-83.309-6.549-144.425-10.186-174.256c-3.639-29.832-8.368-52.386-8.368-52.386l-64.391 15.28"/>
  <path fill="#1f2f3c" d="m572.62 230.81-.665.031.265 5.584c.592 12.479 2.072 43.915 3.403 74.14 1.332 30.219 2.516 59.254 2.514 66.854.002 17.477 1.82 147.341 1.82 147.344l.01.65 70.354.742.083-.58c.001-.016 5.827-40.78 5.827-83.402-.002-42.621-6.547-144.448-10.191-174.337-3.641-29.859-8.373-52.43-8.376-52.441l-.141-.671-65.595 15.565.027.552.665-.03.155.648 64.39-15.279-.154-.65-.652.138c.001.004.294 1.403.793 3.98 1.499 7.73 4.839 25.997 7.565 48.35C648.35 297.77 654.9 399.666 654.9 442.172c0 21.252-1.455 42.062-2.908 57.554a686.714 686.714 0 0 1-1.999 18.643c-.273 2.24-.5 3.995-.659 5.19-.158 1.195-.249 1.825-.249 1.827l.66.095.007-.667-69.12-.728-.007.666.667-.009s-.03-2.028-.079-5.613c-.348-25.095-1.741-126.448-1.741-141.712 0-8.774-1.547-45.406-3.092-79.883-1.547-34.47-3.092-66.757-3.092-66.757l-.667.032.155.648-.155-.648"/>
  <path fill="#1f2f3c" d="m585.717 404.703 50.931-2.183s2.547 38.925 0 66.573c-2.547 27.648-3.639 34.56-5.093 36.016-1.456 1.455-45.838 0-45.838 0s-2.91-2.91-2.91-7.64c0-4.73-1.092-86.218-1.092-88.765 0-2.547 1.456-2.91 4.002-4.001"/>
  <path fill="#1f2f3c" d="m585.717 404.703.028.665 50.931-2.183-.028-.665-.665.044c0 .003.07 1.076.176 3.004.317 5.783.953 19.203.953 33.977.001 9.851-.283 20.303-1.128 29.487-1.273 13.82-2.183 22.456-2.952 27.797-.384 2.668-.735 4.515-1.07 5.754-.327 1.24-.667 1.857-.88 2.054l.26.26-.189-.315-.07.055.258.26-.188-.315v-.002a2.289 2.289 0 0 1-.416.103c-.78.14-2.341.25-4.37.313a239.7 239.7 0 0 1-7.343.093c-6.781 0-15.104-.161-21.73-.323-3.314-.08-6.203-.162-8.263-.222-2.062-.061-3.29-.101-3.292-.101l-.022.666.471-.472-.02-.021c-.265-.275-2.703-2.981-2.695-7.146 0-4.743-1.092-86.234-1.092-88.766 0-.575.083-.98.214-1.283.196-.446.502-.738 1.066-1.065.559-.32 1.35-.627 2.318-1.04l-.262-.613.028.665-.028-.665-.262-.614c-1.255.544-2.287.899-3.111 1.548a3.218 3.218 0 0 0-.975 1.258c-.221.516-.321 1.11-.321 1.809 0 2.561 1.092 84.05 1.092 88.766.01 5.017 3.052 8.05 3.105 8.11l.187.186.263.01c.004 0 19.729.647 33.329.647 3.401 0 6.419-.04 8.66-.143 1.121-.05 2.048-.116 2.745-.204.351-.044.642-.092.888-.153.25-.075.44-.102.708-.343.516-.53.859-1.321 1.224-2.65 1.068-3.975 2.148-13.023 4.063-33.775.85-9.248 1.133-19.734 1.133-29.61 0-19.75-1.132-37.06-1.132-37.069l-.042-.65-51.704 2.215-.112.048.262.614m-7.213-151.279 1.519 17.077 51.884-7.838-.052-.622c-.006-.068-.387-4.514-3.7-11.508-3.35-7.074-7.851-9.361-7.944-9.405l-.212-.107-37.339 8.42.293 1.3 37.107-8.366-.147-.651-.298.596.004.001c.166.09 4.233 2.244 7.332 8.783 1.617 3.416 2.512 6.195 3.002 8.11.246.96.39 1.702.472 2.2.04.25.067.438.082.562l.016.137.004.039.664-.056-.1-.659-49.866 7.534-1.393-15.664-1.328.117"/>
  <path fill="#1f2f3c" d="M625.837 222.679s.03.077.091.25c.923 2.598 8.652 25.57 14.787 81.803 4.153 38.068 6.698 101.256 6.697 148.621 0 13.618-.21 25.928-.652 35.955-.441 10.023-1.119 17.777-2.035 22.215l-.013.066v.068l-.001.025c-.004.169-.059 1.129-.551 2.351-.493 1.226-1.412 2.714-3.175 3.998-.126.102-.614.3-1.313.453-2.477.57-7.625.941-13.739 1.155-6.121.214-13.241.284-19.789.284-5.615 0-10.81-.05-14.6-.1-3.792-.05-6.17-.102-6.177-.102l-.028 1.334c.002 0 9.561.201 20.805.201 7.495 0 15.737-.09 22.405-.386 3.336-.15 6.275-.351 8.543-.622 1.135-.135 2.101-.288 2.877-.464.78-.184 1.354-.361 1.8-.676 2.122-1.54 3.2-3.395 3.735-4.856.536-1.464.541-2.54.541-2.595h-.666l.653.135c.944-4.593 1.615-12.367 2.06-22.426.443-10.055.653-22.38.653-36.013 0-47.414-2.544-110.609-6.705-148.765-6.553-60.07-14.93-82.315-14.955-82.38l-1.248.47"/>
  <path fill="#1f2f3c" d="m629.276 277.223-.136-.046.132.059.004-.013-.136-.046.132.059.003-.007-.171-.102.125.152.046-.05-.171-.102.125.152-.277-.334v.43c.132 0 .24-.063.277-.096l-.277-.334v.43-.378l-.213.319.213.059v-.378l-.213.319.082-.123-.094.115.012.008.082-.123-.094.115.012.012c.098.093.418.67.774 1.933 1.107 3.816 2.896 13.887 5.38 38.932 2.943 29.65 4.192 47.751 4.192 57.495 0 2.955-.116 5.14-.326 6.617-.106.739-.235 1.3-.371 1.674-.13.377-.283.534-.292.532l.085.128-.076-.134-.009.006.085.128-.076-.134-.056.026c-.154.061-.536.158-1.052.252-1.956.36-5.928.773-10.738 1.181-7.223.613-16.368 1.224-23.707 1.68a1977.12 1977.12 0 0 1-12.87.757l.073 1.332c.001 0 11.645-.637 23.565-1.456 5.96-.409 11.99-.864 16.672-1.308 2.341-.222 4.347-.442 5.847-.653a29.56 29.56 0 0 0 1.86-.313 6.64 6.64 0 0 0 .634-.162c.184-.058.332-.11.503-.221.405-.281.619-.685.807-1.19.272-.76.454-1.811.584-3.249.126-1.436.192-3.25.192-5.493-.002-9.847-1.255-27.956-4.199-57.625-1.857-18.703-3.32-29.068-4.421-34.786-.551-2.861-1.008-4.557-1.396-5.584-.198-.516-.372-.865-.571-1.132a1.499 1.499 0 0 0-.352-.346.9.9 0 0 0-1.06.012 1.14 1.14 0 0 0-.32.381l-.088.201 1.264.422m-14.895-1.238c-.004 0-7.285.82-14.849 1.959-3.783.57-7.635 1.219-10.695 1.89-1.532.335-2.864.675-3.906 1.02-.522.174-.97.347-1.344.531-.375.188-.678.37-.923.65-.33.397-.479.884-.585 1.478-.102.596-.144 1.312-.144 2.167.002 3.783.834 10.337 1.773 19.435.939 9.092 1.99 20.702 2.433 34.49.547 16.915.819 27.372.955 33.599.068 3.113.103 5.17.12 6.445.017 1.278.016 1.77.017 1.771h1.334c-.002-.015-.002-8.021-1.092-41.857-.447-13.832-1.5-25.478-2.442-34.586-.941-9.1-1.768-15.688-1.765-19.297 0-.808.043-1.464.124-1.941.077-.479.215-.767.284-.836.027-.039.208-.182.5-.322.548-.272 1.47-.581 2.625-.888 4.056-1.082 11.012-2.186 16.924-3.009a487.545 487.545 0 0 1 10.806-1.373l-.15-1.326"/>
  <path fill="#1f2f3c" d="m627.81 285.812-36.422 5.828-.043.012c-.05.017-.876.264-1.736.972a4.71 4.71 0 0 0-1.745 3.74c0 .359.035.739.107 1.14.074.404.208 1.459.376 2.995 1.176 10.79 4.142 45.965 4.141 70.21 0 3.168-.05 6.151-.161 8.864l1.332.055c.112-2.737.162-5.736.162-8.919 0-13.913-.969-31.356-2.02-45.777a944.53 944.53 0 0 0-1.528-18.543c-.228-2.44-.432-4.484-.601-6.034-.17-1.555-.3-2.598-.39-3.09a5.117 5.117 0 0 1-.085-.901c.007-1.364.618-2.167 1.262-2.712a4.318 4.318 0 0 1 1.184-.692l.073-.027.015-.004-.027-.081.025.081h.002l-.027-.081.025.081-.192-.638.106.658 36.378-5.821-.21-1.316M356.61 465.892h1.334v-128.81h-1.333z"/>
  <path fill="#fff" d="m362.884 322.384.276-16.51s-11.557-59.163-12.384-60.265c-.825-1.1-95.21-1.925-96.312-1.374-1.1.549-.275 6.328-.275 6.328s1.102 18.988 1.927 79.801c.825 60.815-.276 185.195-.276 185.195l105.393.825s-1.101-8.256.551-35.497c1.65-27.243 1.925-152.174 1.925-153.275v-3.577l-.825-1.651"/>
  <path fill="#1f2f3c" d="m362.884 322.384.667.01.276-16.58-.014-.069s-2.889-14.792-5.882-29.721a2386.294 2386.294 0 0 0-4.219-20.67c-.6-2.854-1.12-5.257-1.516-6.987a70.331 70.331 0 0 0-.5-2.068 12.97 12.97 0 0 0-.176-.622l-.079-.221-.132-.247c-.196-.229-.296-.224-.381-.268a2.738 2.738 0 0 0-.504-.109c-.744-.108-2.176-.204-4.225-.299-14.295-.66-58.004-1.141-79.53-1.141-3.621 0-6.613.013-8.736.043-1.06.014-1.902.032-2.502.054-.3.012-.539.024-.722.038l-.241.025-.113.02-.188.065c-.294.151-.46.387-.574.61-.168.341-.244.712-.297 1.125-.052.412-.07.863-.07 1.328 0 1.85.302 3.941.303 3.957l.66-.094-.665.038c0 .004.068 1.18.184 3.907.348 8.183 1.121 30.26 1.741 75.865.226 16.58.307 37.892.307 60.119 0 29.637-.145 60.903-.29 84.759a19091.966 19091.966 0 0 1-.267 37.36l-.026 2.94-.005.67 106.828.835-.101-.76-.015-.116c-.065-.585-.34-3.435-.34-9.885 0-5.53.203-13.704.91-25.368 1.653-27.302 1.926-152.199 1.926-153.315v-3.735l-.896-1.79-.596.297.667.01-.667-.01-.596.299.825 1.65.596-.298h-.666v3.577c.001 1.087-.276 126.05-1.924 153.233-.71 11.687-.912 19.888-.912 25.45 0 7.414.36 10.137.365 10.177l.661-.088.006-.667-105.394-.825-.005.667.667.005c0-.001.582-65.79.582-125.072 0-22.23-.081-43.545-.306-60.137-.827-60.82-1.927-79.815-1.928-79.831l-.002-.028-.004-.027-.045-.341c-.081-.655-.245-2.144-.245-3.428 0-.57.034-1.099.108-1.465.036-.183.084-.323.118-.392l.03-.05-.126-.11.074.148.052-.038-.126-.11.074.148-.23-.459.114.501.116-.042-.23-.459.114.501-.02-.086.016.088.004-.002-.02-.086.016.088c.056-.014.484-.044 1.094-.062 1.866-.06 5.759-.088 10.932-.088 12.887 0 33.751.174 51.47.454 8.86.14 16.934.306 22.829.492 2.947.093 5.35.19 7.027.29.838.051 1.496.103 1.94.152.22.024.388.05.482.07l.054.012.013.004.093-.288-.14.268.047.02.093-.288-.14.268.271-.518-.465.348c.097.123.161.148.194.17l.271-.518-.465.348.349-.261-.392.195.043.066.349-.261-.392.195.044-.022-.044.019v.003l.044-.022-.044.019c.025.05.143.432.277.97 1.047 4.125 4.06 18.925 6.803 32.657a6421.16 6421.16 0 0 1 3.641 18.369c.483 2.445.878 4.463 1.154 5.867a859.5 859.5 0 0 1 .43 2.198l.655-.128-.667-.01-.278 16.673.073.147.596-.299"/>
  <path fill="#1f2f3c" d="m259.45 249.132 3.469.052c7.73.12 27.088.424 44.749.752 8.83.164 17.239.333 23.555.488 3.158.077 5.794.152 7.697.22.95.033 1.72.065 2.275.096.277.015.501.03.665.043l.196.018.055.007.01.003c.348.074.744.336 1.143.789.599.673 1.161 1.735 1.621 2.845.463 1.111.831 2.271 1.1 3.17.079.26.323 1.232.67 2.68 1.218 5.089 3.796 16.296 6.146 26.941a1076.917 1076.917 0 0 1 3.158 14.71c.864 4.2 1.473 7.449 1.625 8.818l1.325-.147c-.19-1.701-.962-5.681-2.03-10.804-1.602-7.673-3.867-17.853-5.8-26.344-.966-4.245-1.85-8.068-2.526-10.944-.678-2.884-1.14-4.786-1.29-5.293-.368-1.224-.919-2.948-1.676-4.465-.382-.759-.812-1.47-1.323-2.05-.51-.576-1.112-1.041-1.853-1.208-.152-.032-.291-.042-.523-.061-1.724-.13-7.693-.296-15.739-.476-24.117-.535-66.678-1.173-66.68-1.173l-.02 1.333m97.163 233.971c0 .001.015.522.03 1.404.017.881.033 2.12.033 3.54 0 2.486-.05 5.538-.231 8.221-.09 1.34-.216 2.59-.381 3.62-.162 1.028-.379 1.85-.592 2.265-.816 1.63-1.654 2.615-2.572 3.266-.922.649-1.96.985-3.247 1.22-.01.004-.223.024-.513.034-.896.036-2.732.054-5.262.054-10.13 0-31.478-.267-50.288-.533-9.405-.134-18.177-.267-24.597-.367l-7.653-.122c-1.819-.03-2.834-.045-2.836-.045l-.023 1.332c.003 0 65.104 1.068 85.397 1.068 1.692 0 3.072-.008 4.083-.024.505-.008.917-.017 1.233-.03.322-.016.519-.024.698-.055 1.377-.251 2.638-.64 3.776-1.443s2.117-1.997 2.997-3.757c.325-.663.537-1.556.716-2.652.521-3.268.627-8.29.628-12.052 0-2.862-.064-4.98-.064-4.986l-1.332.042"/>
  <path fill="#1f2f3c" d="m265.755 408.75-1.211 88.375 86.439 1.211s1.937-87.65 1.694-88.859c-.242-1.21-.242-2.421-5.084-2.906-4.842-.484-76.996-1.211-78.206-1.211-1.211 0-3.147 1.453-3.632 3.39"/>
  <path fill="#1f2f3c" d="m265.755 408.75-.667-.009-1.219 89.042 87.766 1.229.014-.661c0-.006 1.716-77.631 1.716-87.799 0-.32-.002-.573-.005-.761l-.008-.238-.021-.206c-.058-.282-.104-.623-.246-1.002-.204-.576-.689-1.172-1.53-1.561-.842-.403-2.039-.688-3.896-.876-.659-.065-2.302-.127-4.75-.195-17.089-.464-72.446-1.018-73.522-1.02-.866.015-1.735.458-2.526 1.134-.781.681-1.466 1.626-1.753 2.761l-.019.076-.001.077.667.01.646.161c.199-.803.724-1.55 1.335-2.08.601-.535 1.307-.819 1.65-.805.593 0 18.943.182 37.734.424 9.396.121 18.907.257 26.368.393 3.73.068 6.95.136 9.385.203 2.43.065 4.102.132 4.654.188 2.37.23 3.474.665 3.914 1.034.224.186.316.342.396.546.079.204.123.468.187.793l.432-.087-.437.054.005.032.432-.086-.437.054.037-.006-.037.004v.002l.037-.006-.037.004c.006.062.013.434.013.979 0 5.052-.43 27.007-.859 47.681-.213 10.339-.428 20.362-.589 27.799-.08 3.719-.148 6.79-.195 8.933l-.073 3.356.667.015.009-.666-85.772-1.202 1.201-87.708-.666-.01.646.162-.646-.161m6.722-143.001c-.002.005-2.002 2.793-4.098 5.92-1.048 1.565-2.119 3.213-2.98 4.647-.862 1.447-1.507 2.627-1.74 3.448a7.91 7.91 0 0 0-.299 2.059c0 .93.215 1.77.693 2.428.478.66 1.23 1.09 2.104 1.193.148.016.338.023.667.032 2.245.06 10.001.08 19.736.08 22.241 0 54.74-.108 54.74-.108h.059l.058-.01c.076-.015.808-.156 1.552-.844.748-.684 1.44-1.93 1.432-3.895 0-.18-.005-.365-.017-.556l-1.33.077c.009.167.014.327.014.479-.008 1.673-.535 2.47-1.005 2.919a2.32 2.32 0 0 1-.648.426l-.198.071-.042.012-.004.001.072.352-.064-.354-.008.002.072.352-.064-.354.118.656-.001-.667-5.425.017c-10.183.031-32.634.091-49.311.091-5.56 0-10.477-.007-14.085-.024a572.78 572.78 0 0 1-4.343-.032 96.74 96.74 0 0 1-1.272-.024 8.345 8.345 0 0 1-.537-.023c-.568-.076-.923-.297-1.194-.657-.265-.361-.437-.91-.436-1.64a6.534 6.534 0 0 1 .252-1.708c.131-.51.758-1.721 1.598-3.112 1.262-2.105 3.02-4.73 4.458-6.823.72-1.045 1.36-1.96 1.82-2.612.46-.652.739-1.04.739-1.041l-1.083-.777m5.384.329h60.047v-.408l-.035.407.035.001v-.408l-.035.407h.002c.041.012.377.065.878.657.498.593 1.139 1.75 1.654 3.916l1.297-.308c-.624-2.617-1.448-4.008-2.205-4.767-.754-.761-1.447-.837-1.591-.83h-60.047v1.333m5.116 34.777c-.042.016-1.554.519-3.133 1.74-1.572 1.212-3.244 3.208-3.375 6.126-.02.436-.028 1.24-.028 2.382 0 13.668 1.238 75.138 1.238 75.142l1.333-.027-.053-2.668c-.238-11.95-1.184-60.523-1.184-72.447 0-1.132.008-1.937.026-2.321.111-2.41 1.466-4.045 2.86-5.133a10.768 10.768 0 0 1 2.523-1.448l.167-.063.048-.017-.422-1.266m9.393 1.058c.009 0 2.846.074 7.158.196 6.468.181 16.24.465 24.664.749 4.212.141 8.088.284 11.044.412 1.479.065 2.727.125 3.67.183.935.054 1.595.11 1.798.145 1.252.204 2.547 1.025 3.596 2.108 1.052 1.075 1.85 2.403 2.17 3.479l.04-.012-.04.01v.002l.04-.012-.04.01c.006.023.03.172.049.376.158 1.638.284 7.083.374 14.244.138 10.755.207 25.455.24 37.466a8481.04 8481.04 0 0 1 .035 21.33h1.333c0-.001 0-17.797-.09-35.898-.046-9.051-.114-18.176-.216-25.195a544.97 544.97 0 0 0-.18-8.676 93.045 93.045 0 0 0-.114-2.652 20.44 20.44 0 0 0-.064-.83c-.025-.225-.041-.374-.09-.546-.407-1.345-1.303-2.801-2.491-4.027-1.19-1.218-2.68-2.212-4.333-2.492-.447-.072-1.452-.138-2.99-.22-10.681-.557-45.522-1.484-45.526-1.484l-.036 1.334"/>
  <path fill="#1f2f3c" d="M286.11 295.255c-.005 0-.24-.007-.65-.007-1.128.001-3.58.044-6.237.373-2.659.336-5.512.934-7.52 2.152-1.667 1.018-2.651 2.607-3.203 4.296-.556 1.692-.704 3.507-.705 5.108 0 1.458.126 2.743.201 3.574.012.121.03.568.05 1.232.138 5.02.367 23.29.562 40.293.097 8.503.187 16.692.25 22.753l.077 7.274.028 2.726.666-.006h-.666c.002.07.002.917.589 1.841.581.932 1.81 1.853 3.91 1.97 1.025.065 5.762.107 12.378.142 19.82.103 56.183.103 56.184.103.045-.002.773-.002 1.717-.304.94-.302 2.119-.922 2.954-2.172l-1.11-.74c-.618.928-1.497 1.398-2.252 1.642-.374.12-.713.182-.953.211l-.276.027-.068.002h-2.797c-6.214-.002-21.799-.009-36.255-.042-7.228-.018-14.173-.04-19.523-.074-5.341-.03-9.122-.074-9.917-.125-1.773-.124-2.481-.776-2.87-1.359a2.49 2.49 0 0 1-.333-.808l-.041-.252-.004-.06v-.009c0-.001-.181-17.917-.393-36.168-.107-9.127-.22-18.335-.322-25.43-.052-3.546-.1-6.565-.142-8.782a330.034 330.034 0 0 0-.062-2.69 28.262 28.262 0 0 0-.053-1.315c-.076-.836-.196-2.071-.196-3.454 0-1.516.148-3.204.639-4.692.493-1.493 1.302-2.761 2.63-3.574 1.682-1.035 4.422-1.652 6.991-1.966a51.63 51.63 0 0 1 6.072-.364c.397 0 .616.007.617.007l.034-1.333m9.408.364c.006 0 2.796.076 7.058.22 6.392.214 16.079.584 24.546 1.08 4.232.248 8.161.528 11.213.834a65.71 65.71 0 0 1 3.841.48c1.003.159 1.735.346 1.984.47 1.891.905 2.57 2.072 2.908 3.292.164.61.223 1.234.251 1.824.03.592.028 1.138.097 1.638l1.32-.188c-.052-.346-.054-.889-.085-1.516-.048-.942-.163-2.098-.712-3.24-.547-1.142-1.547-2.238-3.21-3.016-.354-.164-.797-.282-1.377-.404-2.154-.446-6.17-.833-11.045-1.178-14.605-1.031-36.75-1.628-36.753-1.63l-.036 1.334m86.077 35.021v-.667h-20.521v-6.097h19.854v6.764h.667v-.667.667h.667v-8.097H359.74v8.764h22.522v-.667h-.667"/>
  <path fill="#1f2f3c" d="M373.892 333.39v-.666h-6.488v-11.05h5.821v11.717h.667v-.667.667h.667v-13.05h-8.488v13.716h8.488v-.666h-.667m5.778 145.019v-.667h-20.522v-6.096h19.856v6.762h.667v-.666.666h.666v-8.096h-22.522v8.763h22.522v-.667h-.666"/>
  <path fill="#1f2f3c" d="M371.965 481.161v-.666h-6.488v-11.05h5.822v11.716h.666v-.666.666h.667v-13.049h-8.488v13.716h8.488v-.667h-.667"/>
  <path fill="#fff" d="m572.508 241.18-160.52 12.19s-13.816 69.898-13.816 71.117c0 1.22-4.47 113.38-2.845 140.606 1.625 27.228 2.032 49.985 2.032 49.985l182.057 5.283-6.908-279.181"/>
  <use xlink:href="#a"/>
  <path fill="#1f2f3c" d="m572.508 241.18-160.52 12.19s-13.816 69.898-13.816 71.117c0 1.22-4.47 113.38-2.845 140.606 1.625 27.228 2.032 49.985 2.032 49.985l182.057 5.283-6.908-279.181"/>
  <use xlink:href="#a"/>
  <path fill="#84d39b" d="M520.028 518.637v-86.193h-35.483v85.164l35.483 1.03"/>
  <path fill="#1f2f3c" d="M520.028 518.637h.667v-86.86h-36.816v86.479l36.816 1.068v-.687h-.667l.019-.665-34.835-1.012v-83.85h34.15v85.527h.666l.019-.665-.019.665"/>
  <path fill="#84d39b" d="m411.973 515.503 72.572 2.105v-85.164h-72.572v83.059"/>
  <path fill="#1f2f3c" d="m411.973 515.503-.018.667 73.257 2.125v-86.518h-73.905v84.372l.648.02.018-.666h.667V433.11h71.239v83.81l-71.886-2.085-.02.667h.667-.667"/>
  <path fill="#fff" d="M440.665 432.444h15.19v40.608h-15.19v-40.608"/>
  <path fill="#1f2f3c" d="M440.665 432.444v.667h14.523v39.274h-13.856v-39.941h-.667v.667-.667H440v41.275h16.522v-41.942H440v.667h.666"/>
  <path fill="#84d39b" d="M558.781 519.763h20.62l-.297-12.032-1.864-75.287h-87.147v85.325l68.688 1.994"/>
  <path fill="#1f2f3c" d="M558.781 519.763v.666h21.303l-.313-12.714-1.88-75.938h-88.464v86.64l69.344 2.012h.01v-.666l.019-.667-68.04-1.975v-84.01h85.83l1.847 74.637.28 11.348h-19.936v.667l.019-.667-.019.667"/>
  <path fill="#84d39b" d="M558.781 519.763h3.886v-87.319h-72.574v85.325l68.688 1.994"/>
  <path fill="#1f2f3c" d="M558.781 519.763v.666h4.552v-88.652h-73.906v86.64l69.344 2.012h.01v-.666l.019-.667-68.04-1.975v-84.01H562v85.985h-3.219v.667l.019-.667-.019.667"/>
  <path fill="#fff" d="M522.659 471.527h-24.35v-16.41h24.35v16.41"/>
  <path fill="#1f2f3c" d="M522.659 471.527v-.667h-23.683v-15.076h23.016v15.743h.667v-.667.667h.666V454.45h-25.682v17.742h25.682v-.666h-.666"/>
  <path fill="#fff" d="M518.785 432.444h15.19v13.083h-15.19v-13.083"/>
  <path fill="#1f2f3c" d="M518.785 432.444v.667h14.523v11.749h-13.856v-12.416h-.667v.667-.667h-.666v13.75h16.522v-14.417H518.12v.667h.666m167.304 71.138s.505 15.66 1.01 19.7c.505 4.042 4.041 6.062 8.588 5.053 4.545-1.011 101.536 1.514 101.536 1.514s4.545-1.01 5.05-6.566c.506-5.556 2.022-13.639 2.022-13.639l-118.207-6.062"/>
  <path fill="#1f2f3c" d="m686.09 503.582-.667.02c0 .002.126 3.92.316 8.343.19 4.43.441 9.342.7 11.42.224 1.82 1.037 3.324 2.281 4.343 1.243 1.021 2.887 1.552 4.727 1.55.762 0 1.561-.09 2.385-.273.107-.025.452-.065.932-.093 1.456-.09 4.268-.13 8.023-.13 12.528 0 35.638.44 55.609.877 9.987.22 19.19.438 25.895.604 3.353.08 6.082.15 7.973.198l2.943.075.081.003.08-.02c.061-.014 1.288-.288 2.605-1.326 1.318-1.03 2.704-2.87 2.966-5.83.249-2.748.753-6.15 1.194-8.856.22-1.354.424-2.535.575-3.378.15-.841.243-1.341.243-1.343l.141-.749-119.692-6.139.023.724.666-.02-.034.666 118.206 6.061.035-.665-.656-.123c-.001.01-1.519 8.09-2.03 13.702-.242 2.597-1.382 4.04-2.463 4.904a6.29 6.29 0 0 1-1.463.863 5.135 5.135 0 0 1-.46.169l-.119.033-.025.007h-.001l.145.65.017-.665c-.004 0-67.35-1.755-92.454-1.755-2.511 0-4.6.018-6.163.056a57.66 57.66 0 0 0-1.941.075c-.514.034-.868.065-1.14.124a9.749 9.749 0 0 1-2.096.241c-1.591 0-2.911-.452-3.88-1.248-.967-.799-1.611-1.948-1.806-3.477-.246-1.963-.501-6.901-.69-11.312a837.254 837.254 0 0 1-.315-8.328l-.667.022-.034.666.034-.666"/>
  <path fill="#afb2b4" d="M776.444 354.457s7.33 59.427 10.733 66.756c3.403 7.331 6.022 10.211 9.948 11.782 3.927 1.57 26.179 8.114 28.796 8.376 2.619.262 3.927-1.047 3.142-4.188-.786-3.142-31.152-72.254-33.771-76.442-2.617-4.189-11.256-7.592-14.397-8.64-3.142-1.046-4.451 2.356-4.451 2.356"/>
  <path fill="#1f2f3c" d="m776.444 354.457-.661.083c0 .001 1.833 14.861 4.092 30.641 1.129 7.891 2.365 16.011 3.533 22.626.584 3.308 1.15 6.237 1.681 8.581.534 2.348 1.014 4.087 1.483 5.107 1.716 3.693 3.244 6.296 4.876 8.202 1.63 1.907 3.383 3.1 5.43 3.916 1.025.41 3.147 1.11 5.835 1.952a556.09 556.09 0 0 0 13.802 4.096 267.79 267.79 0 0 0 5.948 1.62c1.64.419 2.798.691 3.393.754.236.024.465.036.688.036.967 0 1.835-.232 2.47-.811.64-.577.947-1.45.942-2.45 0-.543-.083-1.137-.247-1.789-.072-.28-.234-.717-.505-1.412-2.01-5.129-9.713-22.913-17.233-39.933a2504.17 2504.17 0 0 0-10.396-23.252 617.976 617.976 0 0 0-3.708-8.032c-.49-1.035-.908-1.899-1.243-2.57-.339-.675-.587-1.146-.767-1.434-1.448-2.292-4.334-4.197-7.258-5.736a54.452 54.452 0 0 0-7.494-3.183c-.48-.16-.94-.234-1.37-.234-1.418 0-2.424.794-3.023 1.517-.608.73-.873 1.425-.89 1.467l-.06.156.02.165.662-.083.623.24.005-.013c.039-.097.295-.672.752-1.179.465-.513 1.073-.936 1.91-.937.28 0 .593.047.95.167 1.54.513 4.464 1.617 7.297 3.1 2.835 1.472 5.576 3.362 6.746 5.26.136.214.409.729.77 1.457 2.732 5.495 10.796 23.501 18.256 40.476a2761.71 2761.71 0 0 1 10.008 23.021 692.403 692.403 0 0 1 3.283 7.776c.405.983.732 1.79.967 2.394.233.597.381 1.02.405 1.125.143.57.207 1.061.207 1.467-.006.761-.206 1.186-.506 1.464-.302.278-.808.461-1.573.462a5.52 5.52 0 0 1-.556-.029c-.25-.023-.888-.15-1.739-.356-3.005-.717-8.89-2.376-14.437-4.021-5.54-1.644-10.785-3.292-12.439-3.956-1.88-.755-3.401-1.787-4.912-3.546-1.509-1.758-2.992-4.26-4.68-7.896-.38-.812-.873-2.536-1.392-4.84-1.83-8.092-4.157-23.541-6.018-36.942a1847.044 1847.044 0 0 1-3.266-24.775l-.661.081.623.24-.623-.24"/>
  <path fill="#1f2f3c" d="m791.019 357.85 13.73 76.283 1.312-.236-13.73-76.282"/>
  <path fill="#afb2b4" d="M824.09 408.648s.785 28.01 1.309 30.367c.522 2.356 2.617 3.404 5.234 3.141 2.619-.261 11.258-1.308 12.304-3.927 1.048-2.617-.522-22.513-3.664-27.225-3.141-4.712-9.425-6.283-12.042-6.545-2.618-.262-3.142 4.189-3.142 4.189"/>
  <path fill="#1f2f3c" d="m824.09 408.648-.667.019c0 .001.196 7.005.458 14.305.131 3.65.279 7.375.426 10.337.074 1.482.148 2.774.22 3.772.074 1.01.137 1.688.221 2.079.263 1.201.919 2.164 1.827 2.785.906.626 2.036.918 3.258.918.282 0 .571-.014.867-.043 1.325-.133 4.16-.461 6.83-1.095 1.335-.317 2.63-.709 3.695-1.21 1.058-.51 1.939-1.102 2.332-2.038.156-.401.23-.89.288-1.537.056-.641.083-1.42.083-2.312-.001-3.377-.379-8.367-1.07-13.01-.346-2.32-.77-4.553-1.269-6.455-.502-1.907-1.064-3.474-1.761-4.528-1.67-2.5-4.137-4.134-6.503-5.182-2.37-1.048-4.645-1.517-6.028-1.657l-.285-.015c-.807-.004-1.485.368-1.956.855-.715.735-1.087 1.705-1.323 2.497-.23.792-.302 1.412-.306 1.436l-.006.05.002.048.666-.019.662.077.005-.034c.025-.196.183-1.191.576-2.068.195-.439.447-.842.73-1.106.287-.264.566-.398.95-.402l.152.008c1.235.122 3.41.569 5.621 1.549 2.216.98 4.46 2.49 5.934 4.701.544.81 1.104 2.295 1.581 4.128 1.45 5.511 2.297 14.203 2.295 19.127 0 .864-.027 1.613-.078 2.197-.048.579-.136 1.012-.198 1.158-.13.373-.722.893-1.662 1.325-1.396.661-3.449 1.172-5.377 1.525-1.93.356-3.743.563-4.712.66-.25.026-.495.036-.735.036-1.013 0-1.868-.242-2.501-.681-.635-.441-1.077-1.07-1.283-1.977-.048-.199-.124-.911-.193-1.886-.248-3.445-.524-10.545-.737-16.769a2046.265 2046.265 0 0 1-.363-11.587l-.667.019.662.077-.662-.077"/>
  <path fill="#1f2f3c" d="M825.399 439.015c.522 2.356 2.617 3.404 5.234 3.141 2.619-.261 11.258-1.308 12.304-3.927 1.048-2.617-.522-22.513-3.664-27.225-1.3-1.95-3.14-3.356-5.033-4.36l.583 1.48 1.832 25.656h-11.656c.138 2.696.276 4.681.4 5.235"/>
  <path fill="#1f2f3c" d="m825.399 439.015-.651.145c.264 1.208.925 2.172 1.84 2.792.913.623 2.05.91 3.279.91.273 0 .55-.014.833-.042 1.325-.133 4.16-.461 6.83-1.095 1.335-.318 2.63-.709 3.695-1.212 1.058-.508 1.939-1.1 2.332-2.036.156-.401.228-.89.288-1.537.056-.641.083-1.42.083-2.312-.001-3.377-.379-8.367-1.07-13.01-.346-2.32-.77-4.553-1.269-6.455-.502-1.907-1.064-3.474-1.761-4.528-1.381-2.071-3.315-3.539-5.276-4.58l-1.595-.844 1.208 3.062 1.774 24.84h-11.642l.036.7c.07 1.352.139 2.526.207 3.438.07.918.128 1.54.208 1.909l.65-.145.651-.144c-.044-.186-.116-.834-.18-1.72-.066-.894-.136-2.06-.205-3.406l-.665.035v.667h12.372l-1.891-26.472-.62-1.575-.62.244-.313.59c1.826.966 3.572 2.309 4.792 4.14.544.809 1.104 2.294 1.581 4.127 1.45 5.511 2.297 14.203 2.295 19.127a26.2 26.2 0 0 1-.078 2.196c-.048.58-.136 1.013-.198 1.159-.13.373-.722.893-1.662 1.325-1.396.661-3.449 1.172-5.377 1.525-1.93.356-3.743.563-4.712.66a7.083 7.083 0 0 1-.701.036c-1.024 0-1.887-.241-2.527-.678-.639-.442-1.084-1.067-1.29-1.98l-.651.144m-164.729 5.706L835.56 464.9l.153-1.324-174.888-20.18m1.532 7.632 153.507 16.401 12.25-.844-.091-1.33-12.134.837-153.389-16.39-.143 1.326m151.613 26.499c-.002.004-.367 1.442-.958 3.693-.887 3.377-2.275 8.57-3.676 13.427-1.397 4.85-2.827 9.393-3.733 11.353l1.21.559c.659-1.432 1.498-3.906 2.41-6.856 2.726-8.837 6.037-21.842 6.038-21.847l-1.292-.33m-151.013-15.222.024.013c.623.356 12.512 7.24 18.985 30.686l1.286-.355c-6.771-24.565-19.542-31.461-19.668-31.52l-.627 1.176m-6.141-138.672 111.828 25.644.297-1.299-111.828-25.645m1.385-5.847c.006.002 1.819.414 5.022 1.147 11.209 2.57 39.368 9.061 65.777 15.461 13.204 3.2 25.972 6.378 35.961 9.03 4.995 1.325 9.295 2.52 12.604 3.518 3.302.994 5.643 1.812 6.598 2.315l.616-1.181c-.668-.348-1.703-.748-3.103-1.226-5.236-1.781-15.523-4.56-28.045-7.738-37.56-9.532-95.131-22.626-95.134-22.626l-.296 1.3m129.3 138.045c-1.373-.4-2.486-1.838-2.486-3.211v-17.406c0-1.373 1.113-2.161 2.486-1.76 1.374.4 2.487 1.839 2.487 3.212v17.404c0 1.374-1.113 2.162-2.487 1.762"/>
  <path fill="#1f2f3c" d="m787.797 454.53.187-.64c-.527-.151-1.045-.526-1.417-1.009-.375-.481-.592-1.058-.59-1.562v-17.406c.003-.418.132-.7.318-.89.186-.188.445-.306.805-.308.153 0 .324.024.51.077.527.152 1.046.528 1.418 1.01.375.482.592 1.058.59 1.563v17.404c-.003.419-.133.7-.318.891-.187.188-.444.305-.804.308-.155 0-.325-.024-.512-.077l-.187.64-.186.64c.298.086.596.13.885.13.673.003 1.308-.246 1.757-.709.452-.459.7-1.11.698-1.823v-17.404c-.003-.869-.343-1.697-.868-2.378-.528-.68-1.252-1.224-2.099-1.474a3.13 3.13 0 0 0-.884-.132c-.673-.002-1.31.248-1.759.71-.452.458-.698 1.11-.697 1.822v17.406c.003.868.343 1.697.868 2.378.528.68 1.252 1.224 2.099 1.474l.186-.64m-19.393-1.99c-1.373-.401-2.487-1.838-2.487-3.212v-17.405c0-1.373 1.114-2.161 2.487-1.76 1.373.4 2.485 1.839 2.485 3.212v17.405c0 1.372-1.112 2.162-2.485 1.76"/>
  <path fill="#1f2f3c" d="m768.404 452.541.187-.64c-.527-.152-1.047-.526-1.419-1.009-.375-.481-.59-1.059-.588-1.563v-17.405c.003-.419.132-.7.316-.89.187-.189.445-.306.805-.309a1.8 1.8 0 0 1 .511.079c.528.15 1.047.527 1.419 1.01.374.48.59 1.057.588 1.562v17.405c-.002.418-.132.699-.316.89-.187.188-.446.305-.806.308-.153 0-.325-.023-.51-.078l-.187.64-.187.64c.298.087.595.131.884.131.674.003 1.31-.247 1.759-.708.45-.46.699-1.11.696-1.823v-17.405c-.003-.87-.341-1.697-.867-2.379-.528-.68-1.252-1.224-2.098-1.473a3.133 3.133 0 0 0-.886-.132c-.673-.001-1.309.248-1.758.71-.451.458-.699 1.11-.696 1.822v17.405c.002.868.342 1.698.868 2.379.528.68 1.252 1.224 2.098 1.473l.187-.64"/>
  <path fill="#84d39b" d="M429.632 365.023h93.74v68.014h-93.74v-68.014"/>
  <path fill="#1f2f3c" d="M429.632 365.023v.666h93.073v66.682H430.3v-67.348h-.667v.666-.666h-.667v68.681h95.074v-69.348h-95.074v.667h.667"/>
  <path fill="#84d39b" d="M429.632 365.023h56.528v68.014h-56.528v-68.014"/>
  <path fill="#1f2f3c" d="M429.632 365.023v.666h55.861v66.682H430.3v-67.348h-.667v.666-.666h-.667v68.681h57.862v-69.348h-57.862v.667h.667"/>
  <path fill="#fff" d="M451.98 365.023h11.832v31.63H451.98v-31.63"/>
  <path fill="#1f2f3c" d="M451.98 365.023v.666h11.165v30.298h-10.498v-30.964h-.667v.666-.666h-.667v32.297h13.166v-32.964h-13.166v.667h.667"/>
  <path fill="#84d39b" d="M573.896 297.287h-64.433V365.3h66.116l-1.683-68.014"/>
  <path fill="#1f2f3c" d="M573.896 297.287v-.667h-65.1v69.348h67.467l-1.716-69.348h-.651v.667l-.667.017 1.667 67.33h-64.767v-66.68h63.767v-.667l-.667.017.667-.017"/>
  <path fill="#84d39b" d="M509.463 297.287h56.528V365.3h-56.528v-68.014"/>
  <path fill="#1f2f3c" d="M509.463 297.287v.666h55.861v66.682h-55.195v-67.348h-.666v.666-.666h-.667v68.681h57.861V296.62h-57.861v.667h.667"/>
  <path fill="#fff" d="M561.83 351.897h-24.35v-16.409h24.35v16.41"/>
  <path fill="#1f2f3c" d="M561.83 351.897v-.666h-23.683v-15.076h23.016v15.742h.666v-.666.666h.667v-17.076h-25.683v17.743h25.683v-.667h-.667"/>
  <path fill="#fff" d="M531.812 297.287h11.83v31.63h-11.83v-31.63"/>
  <path fill="#1f2f3c" d="M531.812 297.287v.666h11.164v30.298h-10.497v-30.964h-.667v.666-.666h-.667v32.297h13.164V296.62h-13.164v.667h.667"/>
  <path fill="#84d39b" d="M575.572 365.023h-73.97v68.013h75.653l-1.683-68.013"/>
  <path fill="#1f2f3c" d="M575.572 365.023v-.667h-74.637v69.347h77.004l-1.716-69.347h-.651v.667l-.667.016 1.667 67.33h-74.304v-66.68h73.304v-.666l-.667.016.667-.016"/>
  <path fill="#84d39b" d="M501.601 365.023h56.528v68.014h-56.528v-68.014"/>
  <path fill="#1f2f3c" d="M501.601 365.023v.666h55.862v66.682h-55.195v-67.348h-.667v.666-.666h-.666v68.681h57.861v-69.348h-57.861v.667h.666"/>
  <path fill="#fff" d="M523.95 365.023h11.831v31.63H523.95v-31.63"/>
  <path fill="#1f2f3c" d="M523.95 365.023v.666h11.165v30.298h-10.499v-30.964h-.667v.666-.666h-.666v32.297h13.165v-32.964h-13.165v.667h.666"/>
  <path fill="#84d39b" d="M416.987 293.057h86.882v63.038h-86.882v-63.038"/>
  <path fill="#1f2f3c" d="M416.987 293.057v.667h86.216v61.704h-85.55v-62.37h-.666v.666-.667h-.667v63.704h88.216v-64.37H416.32v.666h.667"/>
  <path fill="#84d39b" d="M416.987 293.057h52.392v63.038h-52.392v-63.038"/>
  <path fill="#1f2f3c" d="M416.987 293.057v.667h51.725v61.704h-51.059v-62.37h-.666v.666-.667h-.667v63.704h53.725v-64.37H416.32v.666h.667"/>
  <path fill="#fff" d="M437.7 293.057h10.965v29.316H437.7v-29.316"/>
  <path fill="#1f2f3c" d="M437.7 293.057v.667h10.299v27.983h-9.632v-28.65h-.667v.667-.667h-.667v29.983h12.299v-30.65h-12.299v.667h.667"/>
  <path fill="#fff" d="M364.57 292.225s-.8 2.556.48 6.072c1.278 3.516 3.355 9.59 4.634 11.507 1.277 1.917.959 4.635.959 4.635l17.898 8.309s.319-6.712.959-7.03c.639-.32 5.593-.32 6.712-2.08 1.119-1.757-.16-10.546-.16-10.546s.959-.959 1.119-1.917c.16-.959-2.398-3.196-2.078-4.955.319-1.757 1.119-3.676-.16-6.232-1.278-2.557-5.046-8.744-10.958-10.663-5.914-1.917-12.278.306-14.834 3.023-2.557 2.716-4.732 5.881-4.572 9.877"/>
  <path fill="#1f2f3c" d="m364.57 292.225-.637-.198c-.016.049-.277.902-.277 2.292 0 1.11.168 2.562.767 4.206.637 1.752 1.477 4.154 2.321 6.363.85 2.217 1.675 4.21 2.385 5.285.732 1.083.888 2.607.882 3.49 0 .22-.008.4-.016.521l-.011.137-.004.039-.056.48 19.236 8.93.047-.99c0-.001.02-.413.06-1.044.058-.944.164-2.37.31-3.573.074-.6.158-1.147.247-1.53.043-.189.09-.34.12-.414l.019-.039.001-.005-.344-.218.177.356c.139-.074.162-.134.167-.138l-.344-.218.177.356-.098-.2.082.207.016-.007-.098-.2.082.207.019-.005c.136-.043.616-.11 1.19-.18.875-.111 2.027-.255 3.098-.546a7.32 7.32 0 0 0 1.517-.576c.462-.249.88-.566 1.17-1.016.262-.426.372-.92.454-1.504.079-.582.108-1.252.108-1.966-.001-3.259-.624-7.515-.625-7.531l-.66.096.47.47c.018-.015.278-.277.57-.68.288-.405.621-.943.736-1.598l.016-.2c-.013-.483-.208-.83-.42-1.212-.327-.56-.767-1.161-1.115-1.759-.353-.594-.585-1.177-.577-1.577l.017-.196c.172-.97.548-2.113.552-3.483.002-.958-.198-2.024-.772-3.168a28.103 28.103 0 0 0-3.836-5.71c-1.89-2.163-4.394-4.274-7.513-5.287a15.773 15.773 0 0 0-4.865-.753c-4.506.013-8.584 1.769-10.659 3.952-2.507 2.662-4.757 5.854-4.761 9.921 0 .145.002.292.009.44l.665-.027-.636-.198.636.198.667-.026a9.449 9.449 0 0 1-.008-.387c-.004-3.537 1.968-6.425 4.399-9.008 1.7-1.828 5.545-3.544 9.688-3.532 1.469 0 2.978.21 4.453.688 2.795.904 5.13 2.845 6.921 4.896a26.822 26.822 0 0 1 3.648 5.43c.48.965.628 1.79.631 2.571.003 1.114-.327 2.147-.53 3.244-.027.146-.04.291-.04.435.018 1.11.634 2.063 1.165 2.9.269.416.529.796.708 1.105.089.154.157.288.196.388l.037.118.007.037h.114l-.112-.02-.002.02h.114l-.112-.02c-.045.304-.272.725-.502 1.039a5.05 5.05 0 0 1-.307.384l-.096.104-.028.029-.236.237.048.331s.037.26.095.704c.173 1.33.518 4.31.517 6.635 0 .676-.03 1.296-.096 1.788-.061.49-.181.857-.259.966-.152.251-.548.538-1.116.76-.846.34-2.009.546-3.014.68-.503.07-.968.123-1.35.175a8.698 8.698 0 0 0-.514.084c-.156.035-.282.059-.454.14-.242.13-.324.28-.398.403-.128.232-.194.466-.266.754-.233.986-.389 2.564-.5 3.935a89.604 89.604 0 0 0-.162 2.504l.666.032.28-.604-17.898-8.31-.28.605.661.077c.003-.02.04-.347.04-.853-.005-1.012-.133-2.754-1.105-4.228-.57-.844-1.422-2.846-2.25-5.023-.834-2.185-1.672-4.579-2.313-6.343-.539-1.481-.687-2.774-.687-3.75 0-.611.058-1.096.115-1.424.028-.164.055-.288.075-.368l.022-.086.004-.017.035-.11-.004-.115-.667.026"/>
  <path fill="#1f2f3c" d="M391.116 294.068c.457-.641 1.281-2.656 1.281-4.03 0-1.373-1.83-1.555-4.852-.366-2.42.953-16.984 6.073-22.506 8.593l.01.032c1.231 3.386 3.2 9.13 4.487 11.266.49.594.9 1.021 1.161 1.169 1.466.824 5.494-.824 6.959-3.021 1.207-1.811 1.73-7.162 1.877-8.992.032-.392.046-.623.046-.623.549-1.465 2.746-1.556 4.304-.732 1.556.824 3.021.916 4.028.55 1.008-.367 1.282-1.466 1.282-2.107 0-.64 1.466-1.099 1.923-1.739"/>
  <path fill="#1f2f3c" d="m391.116 294.068.543.387c.297-.423.616-1.103.9-1.908.276-.802.502-1.692.505-2.508.013-.54-.237-1.092-.681-1.403-.438-.312-.97-.417-1.559-.42-.955.004-2.124.288-3.524.836-1.181.467-5.441 1.99-10.076 3.704-4.64 1.717-9.66 3.625-12.461 4.903l-.532.242.181.591.004.017.007.016c.613 1.687 1.414 3.974 2.225 6.11.816 2.142 1.624 4.116 2.316 5.272l.025.041.032.039c.254.306.49.574.706.796.221.221.408.394.644.53.406.226.858.3 1.332.302 1.08-.006 2.33-.399 3.518-1.019 1.183-.627 2.292-1.477 2.99-2.516.369-.559.636-1.279.869-2.1.687-2.45 1.004-5.813 1.117-7.208.032-.396.047-.63.047-.635l-.665-.041.624.235c.105-.271.274-.45.546-.595.27-.143.644-.227 1.062-.225a3.864 3.864 0 0 1 1.76.442c1.081.572 2.141.831 3.088.831a4.36 4.36 0 0 0 1.48-.244 2.486 2.486 0 0 0 1.39-1.285c.25-.518.328-1.035.331-1.448h-.176l.159.086.017-.086h-.176l.159.086a.779.779 0 0 1 .18-.172c.181-.142.473-.317.77-.512.299-.2.612-.409.866-.754l-.543-.387-.543-.388c-.07.128-.509.423-.953.699a4.06 4.06 0 0 0-.66.502c-.2.199-.428.495-.433.926.001.228-.056.581-.196.865-.146.29-.335.499-.647.615a2.978 2.978 0 0 1-1.025.164c-.702.001-1.556-.195-2.464-.676a5.198 5.198 0 0 0-2.384-.598c-.587 0-1.166.11-1.68.378a2.43 2.43 0 0 0-1.176 1.308l-.035.093-.007.099a55.745 55.745 0 0 1-.579 5.057 23.983 23.983 0 0 1-.538 2.507c-.208.748-.46 1.376-.695 1.721-.505.765-1.462 1.533-2.5 2.076-1.033.548-2.157.87-2.898.865-.323.002-.56-.061-.679-.13a2.122 2.122 0 0 1-.347-.303c-.174-.179-.39-.423-.628-.71l-.513.425.57-.344c-.593-.98-1.413-2.947-2.211-5.056-.803-2.116-1.602-4.395-2.219-6.094l-.627.228.638-.194-.011-.032-.637.194.277.607c2.721-1.243 7.744-3.155 12.37-4.865 4.635-1.715 8.866-3.227 10.103-3.714 1.3-.514 2.355-.746 3.035-.744.424-.001.68.091.775.166.089.078.12.104.132.324.004.557-.183 1.361-.432 2.069-.243.707-.564 1.355-.726 1.572l.543.388"/>
  <path fill="#fff" d="M385.348 298.83s-2.197-3.206-4.121-.55c-1.923 2.655 1.282 6.317 2.564 6.959 1.282.64 1.832-.092 2.197-1.099"/>
  <path fill="#1f2f3c" d="M385.897 298.452a5.697 5.697 0 0 0-.816-.917c-.5-.447-1.214-.963-2.156-.975-.785-.01-1.605.433-2.238 1.328a3.79 3.79 0 0 0-.726 2.257c.006 1.347.619 2.595 1.332 3.596.359.5.75.939 1.124 1.294.379.354.731.625 1.076.8.398.198.78.31 1.16.31a1.73 1.73 0 0 0 1.326-.616c.304-.348.485-.752.636-1.162l-1.254-.455c-.118.335-.258.6-.382.736-.131.135-.178.156-.326.164-.108.001-.294-.035-.564-.17-.154-.075-.448-.283-.756-.577-.95-.878-2.062-2.546-2.038-3.92a2.444 2.444 0 0 1 .472-1.474c.494-.662.848-.768 1.158-.778.383-.012.879.274 1.259.628.19.172.348.35.456.482l.123.156.029.038.005.008 1.1-.753"/>
  <path fill="#84d39b" d="M383.975 279.327c-5.914-1.919-12.278.304-14.834 3.021-2.557 2.716-4.732 5.881-4.572 9.877 0 0-.798 2.556.48 6.072.36.991.786 2.188 1.236 3.435l.11.027s5.401 1.19 11.353-1.74c5.952-2.93 15.565-8.24 16.481-9.98.099-.187.276-.328.5-.444-1.441-2.747-5.121-8.442-10.754-10.268"/>
  <path fill="#1f2f3c" d="m383.975 279.327.205-.635a15.773 15.773 0 0 0-4.865-.753c-4.506.013-8.584 1.769-10.659 3.952-2.507 2.662-4.757 5.854-4.761 9.921 0 .145.002.292.009.44l.665-.027-.636-.198c-.016.049-.277.902-.277 2.292 0 1.11.17 2.562.767 4.206.358.988.784 2.184 1.236 3.434l.121.333.452.113.01.003.009.001c.036.008 1.168.255 2.962.255 2.21 0 5.43-.373 8.83-2.047 2.99-1.473 6.89-3.537 10.17-5.46 1.642-.961 3.127-1.886 4.275-2.692a17.547 17.547 0 0 0 1.453-1.117c.391-.347.682-.64.878-.999.004-.012.057-.081.218-.164l.595-.308-.312-.593c-.741-1.41-2.047-3.563-3.901-5.616-1.856-2.05-4.268-4.01-7.239-4.976l-.205.635-.207.633c2.663.861 4.908 2.661 6.661 4.603 1.754 1.937 3.01 4.006 3.711 5.341l.59-.31-.307-.591c-.288.15-.59.364-.784.725-.032.076-.242.33-.576.617-1.18 1.04-3.815 2.7-6.766 4.38a174.991 174.991 0 0 1-8.844 4.696 18.708 18.708 0 0 1-8.24 1.91c-.836 0-1.514-.058-1.978-.115a9.504 9.504 0 0 1-.53-.077l-.132-.024-.036-.007-.142.65.161-.646-.108-.027-.163.647.628-.227c-.452-1.245-.876-2.441-1.237-3.436-.539-1.481-.687-2.774-.687-3.75 0-.611.058-1.096.115-1.424.028-.164.055-.288.075-.368l.022-.086.004-.017.035-.11-.004-.115a9.449 9.449 0 0 1-.008-.387c-.004-3.537 1.968-6.425 4.399-9.008 1.7-1.828 5.545-3.544 9.688-3.532 1.469 0 2.978.21 4.453.688l.207-.633"/>
  <path fill="#84d39b" d="M390.567 293.244s7.141.183 10.988-1.74c3.845-1.923 3.204-5.493 2.472-5.768-.734-.275-10.896 1.007-10.896 1.007s.824 4.028-2.564 6.501"/>
  <path fill="#1f2f3c" d="m390.567 293.244-.018.665c.006.002.194.006.523.006.865 0 2.7-.032 4.743-.271 2.045-.241 4.293-.676 6.037-1.544 2.564-1.27 3.41-3.341 3.396-4.845a3.549 3.549 0 0 0-.216-1.266 1.982 1.982 0 0 0-.272-.494 1.158 1.158 0 0 0-.5-.384c-.153-.054-.241-.058-.35-.07a4.553 4.553 0 0 0-.343-.01c-1.154.001-3.742.264-6.096.526-2.347.262-4.422.524-4.424.524l-.714.09.144.705.002.007c.01.061.073.426.073.958a6.53 6.53 0 0 1-.427 2.35c-.34.872-.922 1.761-1.952 2.514l-1.582 1.155 1.958.05.018-.666.393.539a6.907 6.907 0 0 0 2.408-3.108 7.842 7.842 0 0 0 .517-2.834c0-.726-.094-1.198-.101-1.232l-.653.134.082.661c.006 0 2.07-.261 4.406-.521 2.326-.262 4.956-.522 5.948-.519l.234.007.043.004.05-.286-.102.271.052.015.05-.286-.102.271.101-.27-.184.225.083.045.101-.27-.184.225.068-.083-.076.075.008.008.068-.083-.076.075.043.066c.079.143.173.476.17.882-.014 1.052-.515 2.568-2.658 3.653-1.487.747-3.632 1.185-5.596 1.412a41.15 41.15 0 0 1-4.588.261c-.316 0-.488-.004-.488-.004l-.017.667.393.539-.393-.539m3.625 4.255c0 .832-.257 1.508-.576 1.508-.319 0-.577-.676-.577-1.508 0-.834.258-1.508.577-1.508.319 0 .576.674.576 1.508m-2.725 28.728s-2.714-4.652-5.814-7.107c-3.101-2.455-11.11-5.425-14.212-5.684-3.1-.259-2.196 1.421-2.584 3.23-.386 1.809-.774 2.454.259 2.713 1.033.258 5.943 1.162 12.273 4.134 6.331 2.972 9.56 4.78 10.207 4.392.645-.386-.13-1.678-.13-1.678"/>
  <path fill="#1f2f3c" d="m391.467 326.227.576-.336c-.026-.031-2.726-4.706-5.976-7.294-1.66-1.308-4.46-2.662-7.278-3.764-2.822-1.094-5.601-1.914-7.292-2.061a7.959 7.959 0 0 0-.641-.03c-.668.002-1.197.105-1.632.378-.323.204-.552.51-.675.815-.186.462-.2.908-.224 1.338-.018.432-.033.856-.118 1.254-.192.924-.407 1.512-.42 2.132-.006.281.073.636.316.902.24.264.541.386.852.464.554.139 1.996.42 4.124 1.043a56.113 56.113 0 0 1 8.028 3.05c2.873 1.347 5.106 2.457 6.762 3.235.83.39 1.512.696 2.072.912.568.214.982.351 1.416.359a1.106 1.106 0 0 0 1.046-.665c.09-.202.116-.398.117-.574-.005-.421-.136-.765-.248-1.036-.115-.266-.224-.449-.233-.466l-.572.344.576-.336-.576.336-.572.342.009.015c.027.047.105.193.172.361a1.4 1.4 0 0 1 .11.44l-.002.035.092.016-.076-.048-.016.032.092.016-.076-.048.139.09-.086-.143-.053.053.139.09-.086-.143.167.278-.07-.32-.097.042.167.278-.07-.32.029.126-.014-.128-.014.002.028.126-.014-.128h-.008c-.072.008-.437-.071-.934-.27-1.526-.586-4.426-2.081-8.75-4.112a57.465 57.465 0 0 0-8.218-3.12c-2.168-.636-3.699-.937-4.178-1.057l-.172-.059-.017-.009-.032.047.041-.036-.009-.011-.032.047.041-.036-.092.08.119-.036-.027-.044-.092.08.119-.036-.004-.06c-.013-.222.176-.89.39-1.854.197-.972.109-1.83.23-2.233.059-.204.097-.255.203-.33.109-.073.382-.167.913-.166.156 0 .332.008.53.024 1.41.112 4.186.907 6.92 1.976 2.738 1.063 5.493 2.421 6.933 3.568 1.468 1.159 2.9 2.899 3.944 4.341.524.722.953 1.37 1.249 1.835.15.232.264.42.343.548l.116.195.002.002.002.004.572-.342"/>
  <path fill="#fff" d="M380.036 559.127s4.512 7.398 7.037 8.843c2.527 1.442 7.399 3.066 7.76 5.773.36 2.706-2.888 2.526-4.512 2.526-1.624 0-12.269.36-14.074-.36-1.804-.722-6.135-3.97-11.007-6.677-4.872-2.707-9.203-3.068-9.203-7.579 0-4.51 4.151-5.413 4.872-6.134.722-.723 19.127 3.608 19.127 3.608"/>
  <path fill="#1f2f3c" d="m380.036 559.127-.57.348c.006.008 1.14 1.866 2.598 3.919.73 1.025 1.541 2.1 2.341 3.02.806.923 1.576 1.693 2.338 2.134 1.324.753 3.16 1.513 4.685 2.41.761.444 1.439.92 1.92 1.411.485.494.76.978.824 1.462l.021.31c-.004.376-.094.583-.233.756-.203.259-.628.466-1.195.575-.561.113-1.224.133-1.812.133-.222 0-.434-.003-.632-.003-.838 0-3.886.09-6.969.09a86.542 86.542 0 0 1-4.337-.088 23.514 23.514 0 0 1-1.628-.134c-.438-.054-.775-.131-.892-.18-.776-.305-2.331-1.296-4.239-2.535-1.917-1.242-4.23-2.739-6.692-4.106-2.497-1.384-4.821-2.164-6.415-3.105-.798-.468-1.404-.962-1.808-1.559-.401-.597-.634-1.31-.637-2.332.001-1.026.232-1.806.577-2.44.519-.947 1.328-1.582 2.114-2.054.392-.236.772-.428 1.105-.603.337-.181.615-.312.881-.567l-.35-.35.177.466.173-.116-.35-.35.177.466-.072-.19.041.2.031-.01-.072-.19.041.2.196-.011c.632-.004 2.186.221 4.054.565 2.817.516 6.436 1.294 9.345 1.942 2.91.646 5.107 1.164 5.112 1.165l.152-.65-.57.349.57-.348.153-.649c-.002 0-3.926-.923-8.226-1.847a220.08 220.08 0 0 0-6.296-1.274c-1.91-.346-3.435-.582-4.294-.586-.148 0-.278.005-.416.029-.137.032-.29.04-.518.247a1.717 1.717 0 0 1-.272.176c-.582.332-1.78.837-2.832 1.804-1.062.963-1.974 2.47-1.964 4.626-.003 1.232.305 2.258.868 3.082.848 1.238 2.164 1.988 3.664 2.7 1.506.713 3.233 1.39 5.013 2.38 2.41 1.338 4.699 2.818 6.616 4.06 1.927 1.242 3.439 2.234 4.468 2.652.333.13.724.2 1.22.265 1.468.185 3.801.233 6.132.233 3.099 0 6.184-.09 6.97-.09.185 0 .4.004.631.004.824-.004 1.855-.022 2.784-.354.463-.168.912-.426 1.255-.842.343-.412.539-.974.535-1.602a3.57 3.57 0 0 0-.034-.486c-.116-.87-.586-1.603-1.194-2.22-.919-.93-2.183-1.658-3.451-2.311-1.265-.65-2.544-1.219-3.444-1.735-.501-.28-1.241-.977-1.992-1.848-1.136-1.308-2.345-3.005-3.261-4.369a74.007 74.007 0 0 1-1.119-1.71c-.272-.429-.425-.682-.427-.682l-.145-.239-.27-.063-.154.649"/>
  <path fill="#84d39b" d="M363.075 433.177s4.51 42.586 4.692 44.751c.18 2.165-2.888 9.924-4.151 16.781-1.263 6.856-2.887 25.803-2.887 25.803l.542 37.352s10.826 2.526 12.45 2.345c1.624-.18 5.774-.9 6.315-1.082.541-.18 3.61-1.263 3.61-1.263s-.722-12.45-.722-16.42c0-3.97 2.525-29.413 3.067-31.939.541-2.527 6.857-39.697 7.76-59.366.901-19.668-2.347-36.088-2.347-36.088l-31.036 1.624 2.707 17.502"/>
  <path fill="#1f2f3c" d="m363.075 433.177-.663.071.708 6.687c1.276 12.072 3.85 36.452 3.981 38.048l.006.142c.004.475-.166 1.382-.456 2.504-.868 3.398-2.756 8.896-3.691 13.959-.639 3.477-1.359 9.924-1.924 15.527-.565 5.6-.97 10.338-.97 10.34l-.005.033.55 37.907.508.118c.002 0 2.529.59 5.33 1.18 1.4.296 2.87.591 4.131.815 1.27.221 2.299.375 2.941.377l.274-.013c.842-.094 2.285-.32 3.602-.547a83.436 83.436 0 0 0 1.78-.324 31 31 0 0 0 .643-.132c.18-.041.308-.07.427-.109a507.51 507.51 0 0 0 3.62-1.268l.473-.167-.03-.5c0-.006-.18-3.11-.36-6.716-.18-3.602-.36-7.713-.36-9.665 0-.937.157-3.283.4-6.256.369-4.467.933-10.399 1.455-15.445.262-2.524.514-4.827.724-6.615.21-1.78.386-3.076.474-3.483.142-.67.636-3.45 1.32-7.608 2.048-12.457 5.772-37.049 6.453-51.868.11-2.409.159-4.769.159-7.057 0-16.47-2.512-29.164-2.516-29.19l-.112-.567-32.351 1.692 2.82 18.233.659-.103-.663.071.663-.07.658-.102-2.593-16.775 30.299-1.585-.035-.665-.653.129s.037.19.105.565c.475 2.622 2.387 14.074 2.385 28.367 0 2.27-.048 4.61-.157 6.996-.448 9.787-2.25 23.99-4.008 36.047a886.895 886.895 0 0 1-2.43 15.666c-.68 4.138-1.18 6.95-1.307 7.544-.078.366-.174 1.035-.296 1.99-.426 3.325-1.12 9.957-1.71 16.202-.59 6.256-1.074 12.072-1.076 13.887 0 4.019.723 16.45.723 16.458l.665-.038-.221-.63-1.601.565c-.832.291-1.74.61-1.998.696a4.206 4.206 0 0 1-.293.071c-1.133.254-4.513.83-5.885.98h.001l-.127.006c-.436.003-1.478-.139-2.709-.357-1.857-.329-4.21-.824-6.092-1.238-1.883-.412-3.295-.742-3.299-.742l-.15.649.666-.01-.541-37.351-.667.009.664.057c0-.004.102-1.182.274-3.064.513-5.639 1.668-17.597 2.605-22.676.604-3.282 1.637-6.809 2.523-9.82.442-1.505.849-2.882 1.148-4.048.297-1.17.493-2.108.497-2.836l-.01-.253c-.182-2.195-4.691-44.757-4.693-44.765l-.001-.015-.003-.016-.658.101"/>
  <path fill="#fff" d="M370.833 559.85s2.707 6.495 3.971 7.578c1.263 1.083 9.203 4.15 9.563 5.593.361 1.444-1.083 2.707-3.067 3.248-1.985.542-16.24.542-19.128-.903-2.887-1.443-11.91-8.12-14.435-9.202-2.526-1.082-6.676-2.525-5.594-7.037 1.082-4.511 6.496-7.94 6.496-7.94l22.194 8.662"/>
  <path fill="#1f2f3c" d="m370.833 559.85-.614.255a85.5 85.5 0 0 0 1.524 3.412c.421.89.884 1.814 1.328 2.597.222.394.44.751.652 1.057.213.306.412.558.646.762.228.192.51.366.867.567 1.235.694 3.348 1.647 5.196 2.59.923.47 1.776.937 2.392 1.345.307.202.555.392.712.542l.163.18.025.04h.001l.124-.046-.129.032.005.014.124-.046-.129.032.036.28c.001.378-.2.782-.664 1.189-.459.399-1.156.753-1.968.973-.252.075-1.081.169-2.156.222a78.02 78.02 0 0 1-3.945.089c-2.432 0-5.184-.085-7.535-.28a36.702 36.702 0 0 1-3.127-.375c-.873-.149-1.56-.341-1.89-.51-.668-.334-1.77-1.016-3.051-1.856-1.927-1.263-4.283-2.886-6.396-4.298a103.86 103.86 0 0 0-2.913-1.892c-.862-.533-1.571-.94-2.111-1.173-1.14-.487-2.532-1.028-3.593-1.817-.531-.392-.974-.84-1.282-1.358a3.523 3.523 0 0 1-.492-1.85c0-.374.048-.787.159-1.244.484-2.047 2.021-3.963 3.465-5.335a20.961 20.961 0 0 1 2.523-2.053l.164-.11.052-.034-.357-.563-.242.62 22.195 8.662.241-.62-.614.255.614-.256.243-.621-22.508-8.784-.285.18c-.024.016-1.408.892-2.946 2.359-1.533 1.47-3.244 3.524-3.842 5.99a6.64 6.64 0 0 0-.195 1.554 4.872 4.872 0 0 0 .68 2.533c.637 1.067 1.613 1.808 2.615 2.381 1.004.572 2.052.98 2.88 1.336.546.232 1.586.847 2.817 1.64 1.856 1.192 4.193 2.798 6.339 4.242 2.15 1.448 4.086 2.724 5.244 3.304.565.278 1.32.465 2.258.632 2.799.485 7.191.673 10.89.674 1.509 0 2.9-.032 4.016-.09 1.125-.063 1.934-.135 2.436-.267.968-.265 1.832-.685 2.489-1.253.653-.562 1.124-1.318 1.125-2.195 0-.2-.025-.404-.076-.604-.121-.43-.374-.678-.668-.95-.521-.457-1.266-.911-2.137-1.391-1.301-.715-2.872-1.458-4.217-2.112a52.308 52.308 0 0 1-1.776-.891c-.486-.256-.859-.49-.978-.595a2.89 2.89 0 0 1-.418-.51c-.631-.906-1.494-2.636-2.174-4.11a84.815 84.815 0 0 1-1.196-2.709l-.109-.261-.264-.103-.243.621"/>
  <path fill="#84d39b" d="M357.841 412.427s-1.804 8.841.903 15.698c2.707 6.856 10.285 16.059 11.548 17.864 1.264 1.804-.36 22.736-1.263 30.856-.902 8.12-2.345 21.833-2.345 22.375 0 .541-7.76 20.39-11.008 29.592-3.248 9.203-8.661 22.376-8.661 22.376s7.218 5.413 10.826 6.496c3.61 1.082 12.992 2.165 12.992 2.165s.903-4.33 1.806-6.136c.901-1.804-.182-2.525.901-7.397s13.173-30.856 17.684-38.255c4.51-7.398 7.217-20.93 9.023-27.608 1.804-6.676 1.804-33.922 2.165-43.306.36-9.383-2.707-20.028-2.707-20.028l-.902-3.43-40.962-1.262"/>
  <path fill="#1f2f3c" d="m357.841 412.427-.652-.134c-.005.028-.602 2.951-.602 6.775.001 2.868.332 6.244 1.537 9.301 1.395 3.527 3.987 7.562 6.39 10.967a157.989 157.989 0 0 0 3.291 4.468c.931 1.224 1.647 2.147 1.942 2.567l.021-.015-.023.013.002.002.021-.015-.023.013c.014.016.076.179.122.419.148.732.224 2.163.222 3.97.002 7.05-1.058 20.043-1.722 26.013-.451 4.062-1.038 9.521-1.512 14.034-.236 2.256-.446 4.275-.595 5.766a266.358 266.358 0 0 0-.224 2.344c-.012.141-.019.214-.019.305h.474l-.466-.099-.008.1h.474l-.466-.1c.002.003-.04.15-.106.343-.507 1.507-2.48 6.683-4.694 12.516-2.214 5.839-4.674 12.352-6.177 16.61-1.619 4.587-3.783 10.176-5.54 14.615a724.302 724.302 0 0 1-3.11 7.73l-.195.476.412.31c.006.004 1.82 1.364 4.093 2.864 2.284 1.503 4.984 3.142 6.943 3.736 1.885.564 5.132 1.102 7.945 1.511 2.807.408 5.157.679 5.161.679l.606.07.124-.596s.054-.264.152-.693a55.06 55.06 0 0 1 .673-2.663c.284-1.005.621-2.02.923-2.617.389-.764.472-1.455.466-2.13 0-.393-.02-.792-.02-1.27.002-.928.071-2.17.51-4.152.244-1.11 1.2-3.663 2.55-6.878 2.027-4.84 4.952-11.262 7.791-17.16 2.837-5.897 5.596-11.285 7.261-14.014 2.315-3.8 4.123-9.07 5.598-14.238 1.473-5.165 2.602-10.229 3.498-13.542.476-1.77.808-4.73 1.071-8.39.78-10.957.848-28.051 1.117-35.065.02-.53.031-1.064.031-1.6-.004-9.088-2.756-18.609-2.763-18.64l-.64.186.644-.171-1.029-3.91-42.019-1.295-.112.55.652.134-.02.666 40.463 1.247.777 2.955.003.008s.041.141.115.414c.517 1.91 2.598 10.131 2.596 17.856 0 .52-.01 1.036-.03 1.548-.181 4.712-.27 13.862-.541 22.674-.136 4.405-.316 8.722-.575 12.348-.256 3.618-.6 6.568-1.026 8.137-.91 3.363-2.034 8.404-3.494 13.524-1.457 5.117-3.257 10.313-5.454 13.91-2.288 3.757-6.434 12.095-10.163 20.142-1.864 4.02-3.62 7.961-4.981 11.21-1.362 3.257-2.323 5.778-2.622 7.105-.458 2.065-.542 3.437-.541 4.44 0 .516.02.928.02 1.27-.005.604-.044.958-.327 1.535-.497 1.003-.942 2.545-1.289 3.874a57.45 57.45 0 0 0-.57 2.423l.651.136.078-.662a193.948 193.948 0 0 1-7.267-1c-2.164-.347-4.321-.754-5.61-1.142-1.651-.488-4.365-2.097-6.591-3.572a91.479 91.479 0 0 1-2.855-1.965c-.728-.521-1.172-.853-1.173-.853l-.4.533.617.253c.001-.005 5.416-13.177 8.673-22.406 1.619-4.588 4.371-11.85 6.716-18.03 1.174-3.09 2.244-5.91 3.024-7.993.39-1.042.706-1.9.927-2.518.11-.31.196-.56.257-.747l.075-.244.027-.107.02-.176h-.166l.166.005v-.005h-.166l.166.005c0-.042.025-.353.068-.8.298-3.192 1.49-14.462 2.273-21.506.668-6.024 1.73-18.999 1.73-26.162 0-1.27-.033-2.36-.11-3.212a9.519 9.519 0 0 0-.156-1.106c-.073-.316-.141-.571-.317-.832-.338-.482-1.043-1.386-1.972-2.61-2.783-3.653-7.534-10.112-9.503-15.117-1.115-2.819-1.447-6.05-1.444-8.812a37.983 37.983 0 0 1 .487-6.021c.028-.16.049-.284.065-.367l.023-.12-.654-.133-.02.666.02-.666"/>
  <path fill="#1f2f3c" d="M386.937 465.577a170.02 170.02 0 0 1-1.096 8.187l1.318.21a171.93 171.93 0 0 0 1.104-8.253l-1.326-.144m-2.24-49.487c-.04.067-.997 1.685-.998 4.346 0 .444.026.915.088 1.412.225 1.83 1.168 3.117 2.19 4.132 1.027 1.021 2.135 1.835 2.874 2.767.258.326.305.524.308.665 0 .145-.059.317-.238.565-.261.37-.764.822-1.284 1.37-.517.55-1.064 1.22-1.36 2.105-.14.421-.201.84-.201 1.241.005 1.211.527 2.232.981 3.1.471.862.848 1.608.827 2.024.001.639.11 2.88.11 6.402 0 3.194-.09 7.418-.433 12.345l1.331.092c.344-4.963.435-9.217.435-12.437 0-3.532-.11-5.848-.11-6.402-.02-.992-.548-1.801-.981-2.648-.45-.841-.832-1.677-.827-2.476 0-.269.039-.537.134-.82.261-.798.892-1.454 1.544-2.1.322-.325.646-.645.916-1.014.265-.367.488-.816.489-1.347.001-.516-.217-1.025-.6-1.499-.901-1.12-2.05-1.946-2.972-2.876-.927-.933-1.624-1.902-1.81-3.354-.055-.44-.078-.856-.078-1.247 0-1.168.21-2.097.419-2.73a5.95 5.95 0 0 1 .28-.715l.086-.174.022-.038.002-.006-.193-.113.192.115.001-.002-.193-.113.192.115-1.143-.686m-28.118-10.159s-1.444 7.038-.18 7.76c1.262.722 41.141.18 42.404 0 1.262-.18 1.985-.36 2.165-1.985.18-1.624-.721-5.954-.721-5.954l-43.668.18"/>
  <path fill="#1f2f3c" d="m356.579 405.93-.654-.134c-.001.023-.708 3.424-.712 5.856.002.537.034 1.03.132 1.465.107.424.25.859.723 1.151.152.083.236.096.341.121.364.078.915.12 1.723.163 2.401.124 6.879.17 12.03.17 6.049 0 13.014-.065 18.567-.14 2.778-.04 5.2-.082 6.982-.122.889-.019 1.618-.039 2.153-.056.267-.01.485-.017.653-.025.172-.01.274-.015.38-.03.636-.097 1.24-.174 1.794-.577a2.07 2.07 0 0 0 .646-.821c.154-.336.243-.72.294-1.172.02-.182.028-.374.028-.579-.002-1.017-.194-2.388-.383-3.535a53.38 53.38 0 0 0-.377-2.05l-.111-.534-44.753.186-.11.529.654.135.002.666 43.668-.18-.002-.666-.654.136s.046.217.115.577c.208 1.073.621 3.445.617 4.736 0 .17-.006.317-.02.43-.04.36-.108.609-.181.769-.117.237-.199.302-.401.402-.203.095-.55.164-1.015.228l-.015.002c-.245.025-1.469.064-3.266.102-5.419.118-16.348.255-25.264.255-3.656 0-6.975-.024-9.432-.08a79.766 79.766 0 0 1-2.968-.112 14.49 14.49 0 0 1-.852-.073l-.218-.036-.03-.007-.108.336.174-.305-.066-.031-.108.336.174-.305-.062.109.094-.085-.032-.024-.062.109.094-.085-.054-.107c-.094-.224-.164-.753-.16-1.376 0-1.093.169-2.505.341-3.628.087-.563.173-1.055.237-1.404.064-.35.107-.555.107-.556l-.653-.133.002.666-.002-.666"/>
  <path fill="#84d39b" d="M369.116 319.379s-12.144 7.364-15.116 16.925c-2.97 9.56 1.17 52.11 1.17 52.11s-3.394 14.711-.226 17.653c3.17 2.942 43.683 2.264 45.493.905 1.812-1.357 3.17-4.073 3.17-7.016 0-2.943.905-28.744.905-43.23 0-14.486-6.872-23.822-9.959-27.16-3.086-3.34-5.205-3.849-5.205-3.849s-16.245-6.34-20.232-6.338"/>
  <path fill="#1f2f3c" d="m369.116 319.379-.345-.57c-.023.014-3.087 1.872-6.542 4.95-3.45 3.08-7.31 7.368-8.865 12.346-.419 1.352-.685 3.22-.859 5.486-.172 2.262-.244 4.916-.244 7.794 0 16.035 2.246 39.082 2.246 39.092l.664-.064-.65-.15c-.004.025-1.592 6.87-1.596 12.274.002 1.264.087 2.454.314 3.483.232 1.025.592 1.915 1.252 2.536.34.307.762.488 1.298.668 1.856.597 5.21.97 9.37 1.223 4.149.246 9.066.353 13.897.353 5.236 0 10.37-.125 14.315-.333 1.973-.104 3.648-.23 4.9-.372a18.374 18.374 0 0 0 1.556-.23 5.05 5.05 0 0 0 .544-.136c.161-.054.3-.102.466-.224 2.014-1.522 3.427-4.401 3.436-7.549 0-1.439.227-8.644.452-17.27.227-8.63.454-18.705.454-25.96-.003-14.707-6.972-24.191-10.136-27.613-3.166-3.428-5.414-4.016-5.54-4.044l-.155.648.241-.62a272.98 272.98 0 0 0-8.642-3.178c-2.287-.795-4.699-1.591-6.803-2.191-2.113-.597-3.873-1.01-5.027-1.016h-.01l-.182.003-.154.094.345.57.01.666-.009-.581v.581h.008l-.008-.581v.581c.842-.006 2.608.375 4.662.966 3.096.882 6.934 2.216 9.992 3.328a285.92 285.92 0 0 1 3.814 1.417c.952.361 1.519.583 1.52.583l.043.017.044.01h.001c.124.037 2.051.603 4.871 3.651 3.01 3.258 9.784 12.444 9.781 26.708 0 7.231-.226 17.3-.452 25.927-.226 8.633-.453 15.8-.453 17.304.01 2.737-1.293 5.29-2.901 6.483l.137.185-.113-.201-.024.016.137.185-.113-.201-.04.017c-.122.047-.428.121-.844.188-1.472.241-4.348.455-7.916.603-3.574.149-7.855.236-12.207.236-5.499 0-11.108-.139-15.53-.466-2.209-.161-4.122-.372-5.56-.63a13.743 13.743 0 0 1-1.765-.415c-.445-.14-.737-.307-.804-.377-.348-.315-.664-.959-.856-1.847-.197-.885-.282-1.993-.282-3.195 0-2.578.389-5.585.78-7.934.196-1.175.392-2.188.538-2.906.147-.717.243-1.133.243-1.134l.025-.106-.01-.109a390.24 390.24 0 0 1-.351-3.844c-.63-7.221-1.89-23.176-1.89-35.119 0-2.856.073-5.481.24-7.694.167-2.211.437-4.018.803-5.19 1.416-4.582 5.115-8.756 8.479-11.748a51.951 51.951 0 0 1 4.441-3.53 44.406 44.406 0 0 1 1.776-1.194l.128-.08-.345-.57.01.666-.01-.666"/>
  <path fill="#1f2f3c" d="M360.72 350.975c.804 1.574 1.816 3.277 3.076 5.116l1.1-.755c-1.232-1.795-2.213-3.45-2.988-4.968l-1.188.607m-.948-15.835c-.09.08-1.864 1.932-1.861 5.915 0 .861.082 1.82.28 2.88l1.31-.244a14.431 14.431 0 0 1-.257-2.636c.001-1.791.393-3.05.77-3.856.189-.403.375-.694.509-.878l.154-.197.035-.04.007-.005-.207-.199.203.203.004-.004-.207-.199.203.203-.943-.943"/>
  <path fill="#84d39b" d="M388.872 329.863s7.561-1.506 12.61 1.15c5.051 2.656 13.233 10.762 15.431 11.852 2.198 1.092 5.999 4.842 9.144 5.671 3.146.83 8.358 2.577 8.358 2.577s15.301-1.069 17.1-1.216c1.798-.146 14.49.084 14.49.084s.731 2.294.951 4.991c.22 2.699.007 4.525.007 4.525s-4.664 2.735-5.908 3.018c-1.246.282-12.234 3.172-21.77 6.124-9.534 2.95-24.316.604-34.32-1.948-10.004-2.554-33.288-12.218-34.476-12.778"/>
  <path fill="#1f2f3c" d="M389.003 330.516s.118-.024.353-.063a28.49 28.49 0 0 1 4.407-.349c2.374-.003 5.202.333 7.41 1.5 2.42 1.268 5.726 3.944 8.664 6.43 1.472 1.246 2.859 2.445 4.023 3.406 1.173.965 2.083 1.681 2.756 2.023.98.48 2.495 1.688 4.121 2.876 1.64 1.188 3.408 2.376 5.15 2.842 1.55.408 3.636 1.051 5.326 1.59 1.691.538 2.987.973 2.99.974l.125.042.133-.01c.003 0 15.295-1.068 17.108-1.216.378-.032 1.46-.046 2.823-.046 2.15 0 5.05.033 7.413.066 2.364.034 4.183.067 4.188.067l.012-.667-.636.202.03.093a24.9 24.9 0 0 1 .892 4.75c.074.9.098 1.702.098 2.366a23.48 23.48 0 0 1-.076 1.901l-.012.128.662.076-.336-.574c-.002 0-.288.169-.743.428-.68.389-1.732.978-2.721 1.494a30.61 30.61 0 0 1-1.378.68c-.398.183-.741.311-.878.34-.655.15-3.7.939-7.804 2.068-4.1 1.128-9.236 2.59-14.014 4.068-3.066.95-6.741 1.346-10.642 1.344-7.876.002-16.666-1.602-23.316-3.301-4.938-1.259-13.262-4.31-20.468-7.11a590.231 590.231 0 0 1-9.44-3.765c-1.252-.51-2.296-.944-3.064-1.265a55.729 55.729 0 0 1-1.386-.595l-.569 1.207c.179.084.663.29 1.439.617 5.413 2.267 24.306 9.942 33.158 12.203 6.73 1.716 15.592 3.341 23.646 3.343 3.99 0 7.784-.398 11.036-1.404 4.757-1.472 9.884-2.931 13.973-4.056 4.085-1.124 7.156-1.92 7.745-2.054.434-.102.956-.336 1.591-.64 1.879-.909 4.5-2.448 4.508-2.452l.287-.168.038-.33c.003-.02.098-.839.098-2.183 0-.696-.026-1.533-.103-2.473-.228-2.784-.972-5.112-.98-5.14l-.145-.456-.478-.008c-.002 0-7.302-.134-11.625-.134-1.383.002-2.44.012-2.932.052-.888.072-5.17.376-9.217.662l-7.875.553.047.665.212-.633c-.008-.001-5.215-1.748-8.4-2.588-1.403-.363-3.11-1.464-4.704-2.632-1.61-1.167-3.095-2.38-4.314-2.992-.425-.204-1.364-.91-2.5-1.855-1.72-1.422-3.977-3.406-6.282-5.286-2.31-1.883-4.658-3.663-6.634-4.704-2.526-1.323-5.537-1.648-8.03-1.652-2.824.001-4.994.433-5.02.437l.26 1.308"/>
  <path fill="#1f2f3c" d="M418.805 359.877c-2.018.608-4.097 1.084-6.128 1.328l.159 1.324c2.128-.256 4.277-.75 6.353-1.374l-.384-1.278m14.93-6.778-.21.128c-.976.596-5.28 3.144-10.632 5.233l.486 1.241c6.245-2.438 11.044-5.461 11.066-5.474l-.71-1.128m-43.643 7.591s-.11.211-.328.605c-1.51 2.745-8.176 14.172-15.884 19.549l.764 1.092c4.627-3.243 8.756-8.39 11.76-12.73 3-4.342 4.86-7.88 4.87-7.895l-1.182-.622m-9.827 22.958c-1.82 2.08-3.718 4.032-5.526 5.53l.852 1.027c1.89-1.57 3.826-3.564 5.677-5.68l-1.003-.877m10.218-13.624s-.199.308-.566.86c-1.102 1.652-3.706 5.461-6.854 9.406l1.042.831c4.244-5.321 7.491-10.365 7.499-10.376l-1.121-.721"/>
  <path fill="#fff" d="M466.005 349.981s2.812-3.129 4.682-4.785c1.869-1.656 4.124-2.676 5.23-3.435 1.108-.758 1.819-4.324 3.42-3.118 1.603 1.205 1.199 2.408.618 3.457-.583 1.05-1.914 3.163-2.344 4.033l-.43.871s4.602 1.127 6.607 1.13c2.004.003 7.533.22 7.781 1.202.247.983-.501 2.045-.998 2.087l-7.302.596s5.608 3.216 5.65 3.714c.04.498-1.22 1.435-2.686 1.89-1.466.453-3.654 2.302-5.977 2.492-2.323.189-9.041-.264-9.897-.528-.858-.264-3.396-.09-3.396-.09l-.958-9.516"/>
  <path fill="#1f2f3c" d="m466.005 349.981.496.446s.172-.194.464-.51c.87-.95 2.803-3.018 4.163-4.222.885-.786 1.881-1.434 2.8-1.98.921-.548 1.757-.987 2.367-1.403.381-.27.624-.625.86-1 .346-.563.653-1.199.956-1.655.149-.226.296-.402.408-.496l.185-.098c.02.001.083.002.233.113.366.275.579.525.7.741.122.218.162.4.163.6.004.356-.168.795-.43 1.26-.28.504-.757 1.296-1.217 2.066-.461.773-.901 1.514-1.14 1.996l-.429.869-.37.745.809.198c.005.001 1.162.285 2.578.57 1.423.284 3.074.575 4.186.58.98.002 2.853.056 4.48.23.812.086 1.566.204 2.089.346.261.071.464.15.565.207l.055.035.012.01.179-.192-.244.062.065.13.179-.192-.244.062.028.238a1.45 1.45 0 0 1-.25.778l-.198.225-.044.03.07.153-.013-.166-.057.012.07.154-.013-.166c-.497.042-7.3.596-7.3.596l-2.14.175 1.861 1.068c.002.001.348.2.872.508a94.855 94.855 0 0 1 2.943 1.795c.488.314.927.61 1.228.838.15.114.267.211.325.268l.031.031.004.005.376-.292-.463.038c.031.22.088.242.087.254l.376-.292-.463.038.374-.031h-.375l.001.03.374-.03h-.375.292l-.283-.077-.009.077h.292l-.283-.077.076.021-.07-.035-.006.014.076.021-.07-.035c-.007.046-.284.356-.698.611a6.376 6.376 0 0 1-1.533.71c-.877.278-1.783.866-2.783 1.393-.993.53-2.049.993-3.05 1.072-.354.029-.844.042-1.411.042-1.433 0-3.355-.086-4.996-.202a60.916 60.916 0 0 1-2.157-.184 18.72 18.72 0 0 1-.734-.091 3.684 3.684 0 0 1-.35-.065 4.119 4.119 0 0 0-.891-.144c-.323-.024-.67-.032-1.008-.032-.896 0-1.73.057-1.739.058l.046.664.664-.066-.959-9.516-.663.066.496.446-.496-.446-.664.067 1.023 10.16.645-.045s.198-.014.506-.027c.306-.015.721-.028 1.141-.028.316 0 .636.008.908.028.272.019.504.057.597.088.162.048.324.076.547.11 1.51.225 5.481.491 8.084.493.588 0 1.104-.014 1.519-.047 1.321-.112 2.52-.67 3.568-1.224 1.04-.557 1.961-1.121 2.552-1.297a7.53 7.53 0 0 0 2.072-1.004c.278-.198.516-.402.708-.626.181-.226.361-.468.374-.873l-.002-.077a.783.783 0 0 0-.106-.331c-.158-.255-.304-.356-.508-.53-.692-.554-2.006-1.375-3.184-2.089a121.646 121.646 0 0 0-2.184-1.289l-.332.579.055.664 7.3-.596a1.33 1.33 0 0 0 .704-.299c.535-.441.94-1.167.956-2.05 0-.185-.02-.374-.068-.565a1.062 1.062 0 0 0-.277-.48c-.219-.216-.456-.33-.722-.437-.914-.348-2.306-.519-3.738-.636a51.003 51.003 0 0 0-3.69-.152c-.893.001-2.545-.273-3.925-.553a70.243 70.243 0 0 1-2.524-.559l-.159.648.598.295.43-.871c.191-.39.632-1.139 1.088-1.901.459-.768.938-1.559 1.24-2.103.292-.533.592-1.16.596-1.907a2.53 2.53 0 0 0-.336-1.257c-.232-.41-.582-.792-1.058-1.15-.307-.233-.664-.382-1.035-.38-.277 0-.537.083-.75.205-.373.217-.629.522-.86.846-.34.487-.618 1.043-.887 1.514-.258.47-.538.845-.666.917-.497.343-1.344.793-2.294 1.357-.952.567-2.019 1.256-3.003 2.128-1.921 1.703-4.725 4.83-4.735 4.838l-.197.22.03.293.663-.067"/>
  <path fill="#1f2f3c" d="m480.504 355.312 5.415 2.899.629-1.176-5.415-2.899m-2.693 4.041 3.467 1.554.545-1.216-3.467-1.555"/>
  <path fill="#84d39b" d="M236.817 489.457h120.347v87.318H236.817v-87.318"/>
  <path fill="#1f2f3c" d="M236.817 489.457v.667h119.68v85.984H237.484v-86.65h-.667v.666-.667h-.666v87.984h121.68v-88.65H236.15v.666h.666"/>
  <path fill="#84d39b" d="M236.817 489.457h72.572v87.318h-72.572v-87.318"/>
  <path fill="#1f2f3c" d="M236.817 489.457v.667h71.906v85.984h-71.239v-86.65h-.667v.666-.667h-.666v87.984h73.905v-88.65h-73.905v.666h.666"/>
  <path fill="#fff" d="M265.508 489.457h15.19v40.608h-15.19v-40.608"/>
  <path fill="#1f2f3c" d="M265.508 489.457v.667h14.524v39.275h-13.857v-39.942h-.667v.667-.667h-.667v41.275h16.524V488.79h-16.524v.667h.667"/>
  <path fill="#84d39b" d="M219.672 474.392H122.04v87.319h97.632v-87.319"/>
  <path fill="#1f2f3c" d="M219.672 474.392v-.667h-98.299v88.652h98.966v-88.652h-.667v.667h-.667v86.652h-96.298v-85.985h96.965v-.667h-.667.667"/>
  <path fill="#84d39b" d="M219.672 474.392h-58.875v87.319h58.875v-87.319"/>
  <path fill="#1f2f3c" d="M219.672 474.392v-.667h-59.541v88.652h60.208v-88.652h-.667v.667h-.667v86.652h-57.541v-85.985h58.208v-.667h-.667.667"/>
  <path fill="#fff" d="M196.396 474.392h-12.323V515h12.323v-40.608"/>
  <path fill="#1f2f3c" d="M196.396 474.392v-.667h-12.99v41.941h13.657v-41.94h-.667v.666h-.667v39.941H184.74V475.06h11.656v-.667h-.667.667M0 577.227h984.624v-1.333H0Z"/>
</svg>
