<svg xmlns="http://www.w3.org/2000/svg" xml:space="preserve" viewBox="0 0 42.333 10.583">
  <path fill="#b21751" d="M14.337 7.643v1.15h-.188V7.87l-.554.923h-.242v-1.15h.188v.921l.553-.92zm.383 1.15v-1.15h.81v.151h-.62v1zm1.294-.173v.61h-.19V7.644h.19v.175q.06-.103.15-.152.091-.05.217-.05.21 0 .34.166.132.166.132.437t-.132.438q-.13.166-.34.166-.126 0-.217-.05-.09-.05-.15-.152zm.643-.4q0-.21-.087-.327-.085-.12-.235-.12-.15 0-.236.12-.085.118-.085.326 0 .209.085.328.086.118.236.118t.235-.118q.087-.12.087-.328zm1.031-.005q-.229 0-.317.053-.088.052-.088.178 0 .1.066.16.066.059.18.059.157 0 .252-.111.095-.112.095-.297v-.042zm.377-.078v.656h-.189V8.62q-.064.104-.16.155-.097.049-.237.049-.177 0-.281-.099-.104-.1-.104-.265 0-.195.13-.293.13-.099.387-.099h.265V8.05q0-.13-.086-.201-.085-.072-.24-.072-.099 0-.192.023-.094.024-.18.071v-.174q.104-.04.201-.06.098-.02.19-.02.25 0 .373.129.123.13.123.392zm1.367-.494v1.15h-.188V7.87l-.555.923h-.242v-1.15h.188v.921l.553-.92Zm-.813-.447h.12q.012.077.061.116.05.038.14.038.088 0 .138-.038.049-.038.062-.116h.121q-.01.147-.091.22-.081.074-.23.074-.149 0-.23-.074-.081-.073-.091-.22zm2.848.447v1.15h-.188V7.87l-.555.923h-.242v-1.15h.188v.921l.553-.92zm1.313.999h.549v-.848h-.397v.144q0 .423-.121.649zm-.273 0q.093-.04.134-.128.1-.217.1-.653v-.218h.778v1h.15v.44h-.15v-.29h-.932v.29h-.151v-.44Zm2.454-.471v.092h-.868q.012.196.117.298.106.102.294.102.108 0 .21-.027.103-.027.203-.08v.179q-.101.043-.208.065-.107.023-.217.023-.275 0-.436-.16-.16-.16-.16-.433 0-.283.152-.448.153-.166.411-.166.232 0 .367.15.135.148.135.405zm-.188-.055q-.003-.155-.088-.248-.084-.092-.224-.092-.158 0-.253.09-.095.088-.109.25zm.491.677v-1.15h.811v.151h-.62v1zm1.591.107q-.08.205-.156.268-.076.063-.204.063h-.15v-.159h.11q.078 0 .121-.036.044-.037.096-.175l.034-.086-.465-1.132h.2l.36.9.359-.9h.2zm1.593-1.212v.176q-.08-.044-.161-.066-.08-.022-.162-.022-.184 0-.286.117-.101.116-.101.326 0 .21.101.328.102.116.286.116.082 0 .162-.022.081-.022.161-.066v.174q-.079.037-.164.056-.084.018-.18.018-.26 0-.413-.163-.153-.163-.153-.44 0-.282.154-.443.155-.161.424-.161.088 0 .17.018.084.018.162.053zm.192-.045h1.102v.151h-.458v1h-.186v-1h-.458zm2.339 0v1.15h-.188V7.87l-.554.923h-.243v-1.15h.188v.921l.554-.92zm.571.977v.61h-.19V7.644h.19v.175q.06-.103.15-.152.092-.05.218-.05.21 0 .34.166.132.166.132.437t-.132.438q-.13.166-.34.166-.126 0-.217-.05-.09-.05-.15-.152zm.643-.4q0-.21-.086-.327-.085-.12-.235-.12-.15 0-.236.12-.085.118-.085.326 0 .209.085.328.086.118.236.118t.235-.118q.086-.12.086-.328zm.988.68q-.08.205-.156.268-.076.063-.203.063h-.151v-.159h.11q.079 0 .122-.036.043-.037.095-.175l.034-.086-.465-1.132h.2l.36.9.359-.9h.2zm1.743-1.257v1.15h-.187V7.87l-.555.923h-.242v-1.15h.188v.921l.553-.92Zm-.813-.447h.121q.012.077.061.116.05.038.14.038.088 0 .137-.038.05-.038.063-.116h.121q-.01.147-.091.22-.082.074-.23.074-.15 0-.23-.074-.081-.073-.092-.22z" aria-label="играй и дегустируй" display="block" font-family="Cinzel" font-size="2.103"/>
  <g fill="#8a4885" stroke-width=".038" aria-label="КАЗИНОВИН" display="block" font-family="Rubik" font-size="4.847" font-weight="500">
    <path fill="#b21751" d="M10.784 5.45q-.048 0-.082-.029-.034-.034-.034-.087V2.178q0-.053.034-.087.034-.034.082-.034h.442q.053 0 .082.034.034.034.034.087V3.43h.422l.79-1.284q.024-.04.063-.063.043-.025.111-.025h.48q.049 0 .073.03.029.028.029.072 0 .024-.02.058l-.916 1.479 1.004 1.59q.014.014.014.053 0 .044-.034.077-.029.034-.077.034h-.5q-.062 0-.096-.029-.03-.029-.049-.053l-.848-1.333h-.446v1.3q0 .048-.034.081-.03.034-.082.034zm2.923 0q-.038 0-.072-.029-.03-.029-.03-.072 0-.02.01-.044l1.169-3.127q.014-.048.053-.082.043-.039.116-.039h.529q.072 0 .111.04.039.033.058.081l1.168 3.127q.005.024.005.044 0 .043-.029.072-.029.03-.068.03h-.421q-.068 0-.102-.03-.03-.034-.039-.063l-.228-.591h-1.44l-.227.591q-.01.03-.044.063-.029.03-.097.03zm.96-1.24h1.1l-.552-1.498Zm3.757 1.289q-.335 0-.582-.073-.247-.077-.407-.203-.16-.126-.252-.286-.087-.165-.102-.34-.005-.043.024-.068.034-.029.078-.029h.436q.049 0 .083.025.034.019.058.072.058.155.218.252t.431.097q.204 0 .359-.058t.247-.165q.092-.111.092-.261 0-.238-.174-.364-.175-.126-.48-.126h-.35q-.052 0-.086-.034-.03-.039-.03-.087V3.57q0-.054.03-.088.034-.034.087-.034h.334q.252 0 .408-.106.16-.107.16-.34 0-.135-.078-.232-.073-.097-.204-.15-.13-.054-.3-.054-.257 0-.422.087-.165.088-.203.267-.02.049-.049.073-.029.02-.077.02h-.451q-.044 0-.078-.03-.029-.029-.024-.073.014-.179.097-.339.087-.165.247-.29.16-.127.398-.2.242-.072.572-.072.407 0 .683.136.276.13.422.344.15.208.15.46 0 .131-.034.267-.034.13-.121.247-.083.116-.228.204.175.087.281.218.112.126.16.28.053.156.053.316 0 .305-.17.533-.164.228-.474.359-.31.126-.732.126zm2.099-.049q-.049 0-.083-.034-.034-.033-.034-.087V2.18q0-.054.034-.088.034-.034.088-.034h.436q.053 0 .082.034.034.034.034.087v2.225l1.595-2.268q.02-.024.053-.049.034-.029.087-.029h.403q.048 0 .082.034t.034.087v3.156q0 .049-.034.082-.034.034-.082.034h-.436q-.054 0-.088-.034-.034-.033-.034-.082V3.153l-1.59 2.22q-.014.02-.048.048-.034.03-.092.03zm3.684 0q-.049 0-.083-.029-.034-.034-.034-.087V2.178q0-.053.034-.087.034-.034.083-.034h.44q.054 0 .083.034.034.034.034.087V3.43h1.43V2.18q0-.054.034-.088.034-.034.082-.034h.437q.053 0 .087.034.034.034.034.087v3.156q0 .049-.034.082-.034.034-.087.034h-.437q-.048 0-.082-.034-.034-.033-.034-.082v-1.3h-1.43v1.3q0 .048-.034.081-.029.034-.082.034zm4.721.049q-.431 0-.742-.14-.31-.146-.484-.442-.175-.3-.19-.746-.004-.209-.004-.412 0-.204.005-.417.014-.441.193-.737.18-.296.49-.446.315-.15.732-.15t.732.15q.315.15.494.446.18.296.194.737.01.213.01.417 0 .203-.01.412-.014.446-.189.746-.174.296-.49.441-.31.14-.741.14zm0-.558q.315 0 .514-.184.198-.189.213-.61.01-.214.01-.393 0-.184-.01-.393-.01-.28-.107-.455-.092-.18-.252-.257-.16-.083-.368-.083-.204 0-.364.083-.16.077-.257.257-.092.174-.101.455-.005.209-.005.393 0 .18.005.392.014.422.213.611.199.184.509.184z" style="-inkscape-font-specification:&quot;Rubik Medium&quot;"/>
    <path fill="none" stroke="#b21751" stroke-width=".1" d="M31.11 5.45q-.05 0-.083-.034-.034-.033-.034-.082V2.178q0-.053.034-.087.034-.034.082-.034h1.406q.393 0 .64.121.247.117.363.325.122.209.122.485 0 .184-.068.325-.063.135-.16.223-.092.087-.184.135.189.088.334.291.145.204.145.485 0 .29-.13.519-.131.227-.388.358-.257.126-.635.126zm.557-.513h.81q.26 0 .397-.141.135-.145.135-.349 0-.213-.14-.354-.136-.14-.393-.14h-.81zm0-1.489h.76q.258 0 .384-.12.13-.127.13-.326 0-.203-.13-.32-.126-.116-.383-.116h-.761zm2.767 2.002q-.048 0-.082-.034-.034-.033-.034-.087V2.18q0-.054.034-.088.034-.034.087-.034h.437q.053 0 .082.034.034.034.034.087v2.225l1.595-2.268q.02-.024.053-.049.034-.029.087-.029h.403q.048 0 .082.034t.034.087v3.156q0 .049-.034.082-.034.034-.082.034h-.437q-.053 0-.087-.034-.034-.033-.034-.082V3.153l-1.59 2.22q-.014.02-.048.048-.034.03-.092.03zm3.684 0q-.048 0-.082-.029-.034-.034-.034-.087V2.178q0-.053.034-.087.034-.034.082-.034h.442q.053 0 .082.034.034.034.034.087V3.43h1.43V2.18q0-.054.034-.088.034-.034.082-.034h.436q.054 0 .088.034.034.034.034.087v3.156q0 .049-.034.082-.034.034-.088.034h-.436q-.048 0-.082-.034-.034-.033-.034-.082v-1.3h-1.43v1.3q0 .048-.034.081-.03.034-.082.034z" style="-inkscape-font-specification:&quot;Rubik Medium&quot;"/>
  </g>
  <path fill="#b21751" d="M2.89 2.874a3.815 3.815 0 0 1 2.716-1.125c1.026 0 1.99.4 2.716 1.125a3.815 3.815 0 0 1 1.125 2.715c0 1.026-.4 1.99-1.125 2.716A3.815 3.815 0 0 1 5.606 9.43c-1.025 0-1.99-.4-2.715-1.125A3.815 3.815 0 0 1 1.766 5.59c0-1.025.4-1.99 1.125-2.715zm-.46 4.41.625-.36a2.86 2.86 0 0 1-.326-1.215h-.72c.018.568.169 1.103.422 1.575zm3.296 1.183v.72a3.576 3.576 0 0 0 1.575-.422l-.36-.624a2.86 2.86 0 0 1-1.215.326Zm-.24 0a2.86 2.86 0 0 1-1.214-.326l-.36.624a3.576 3.576 0 0 0 1.574.423Zm.12-.237a2.643 2.643 0 0 0 2.64-2.64 2.643 2.643 0 0 0-2.64-2.64 2.643 2.643 0 0 0-2.64 2.64 2.643 2.643 0 0 0 2.64 2.64zm3.599-2.52h-.72a2.86 2.86 0 0 1-.327 1.214l.624.36a3.576 3.576 0 0 0 .423-1.575Zm-.423-1.815-.624.36c.192.366.308.778.326 1.214h.72a3.576 3.576 0 0 0-.422-1.574ZM5.486 2.712v-.72a3.575 3.575 0 0 0-1.575.422l.36.624a2.86 2.86 0 0 1 1.215-.326Zm.24 0a2.86 2.86 0 0 1 1.215.326l.36-.624a3.576 3.576 0 0 0-1.575-.423ZM2.73 5.469a2.86 2.86 0 0 1 .326-1.214l-.624-.36a3.576 3.576 0 0 0-.423 1.574Zm-.18-1.782.624.36c.227-.357.532-.662.889-.89l-.36-.623A3.628 3.628 0 0 0 2.55 3.687Zm4.96-1.153-.36.624c.357.227.661.532.889.889l.624-.36A3.628 3.628 0 0 0 7.51 2.534Zm1.153 4.958-.624-.36a2.903 2.903 0 0 1-.89.889l.361.624a3.628 3.628 0 0 0 1.153-1.153zM3.704 8.645l.36-.624a2.903 2.903 0 0 1-.89-.89l-.623.361c.291.466.687.861 1.153 1.153z"/>
  <path fill="#b21751" d="M2.866 3.865a9.597 9.597 0 0 1-.308-.181A3.68 3.68 0 0 1 3.7 2.542c.004 0 .086.138.183.307l.178.307L4 3.198c-.314.213-.571.47-.784.783l-.042.062zm-.472 3.332a3.722 3.722 0 0 1-.374-1.366l-.009-.112h.703l.009.03a.41.41 0 0 1 .008.083c0 .221.122.682.255.973l.055.117-.192.111-.304.176-.112.066zm2.949 1.977A3.783 3.783 0 0 1 4 8.803l-.078-.04.026-.043.165-.287c.077-.134.146-.251.154-.26.011-.012.039-.005.116.03.318.149.767.263 1.03.263h.067v.718l-.04-.004a8.964 8.964 0 0 1-.098-.007zm2.114-.637-.175-.303-.123-.212.092-.061c.26-.173.58-.496.743-.75l.046-.071.042.026.293.17c.138.08.255.15.261.155.006.006-.02.056-.058.112-.199.295-.528.64-.822.86a2.894 2.894 0 0 1-.206.145l-.04.02zM8.48 5.328a2.93 2.93 0 0 0-.244-.929.534.534 0 0 1-.053-.144 5.84 5.84 0 0 1 .246-.147l.294-.17.057-.033.04.078c.206.41.333.878.373 1.38l.008.099h-.714ZM6.819 2.969c-.292-.135-.752-.255-.979-.255-.112 0-.104.026-.104-.368v-.352l.111.01c.314.025.603.083.884.175.167.055.496.195.538.228.017.014-.007.062-.151.31-.094.16-.174.296-.178.299a.553.553 0 0 1-.121-.047ZM4.402 4.89a1.237 1.237 0 0 0 1.212 1.068c.674 0 1.226-.573 1.226-1.197v-.015c-.703-.093-1.584.416-2.438.144"/>
  <path fill="#b21751" d="M7.191 4.768c0-.817-.408-1.32-.408-1.32H4.445s-.408.51-.408 1.32c0 .774.666 1.499 1.498 1.542-.007.451-.05.917-.158 1.082-.157.23-.702.115-.702.359h1.878c0-.244-.545-.13-.702-.359-.108-.165-.15-.63-.158-1.082.832-.043 1.498-.76 1.498-1.542M5.614 6.123c-.703 0-1.283-.56-1.355-1.197-.007-.043-.007-.094-.007-.137 0-.71.351-1.14.351-1.14h2.022s.344.43.351 1.126v.014c0 .689-.61 1.334-1.362 1.334"/>
</svg>
